<svg version="1.1" xmlns="http://www.w3.org/2000/svg" style="display: block;" viewBox="0 0 2048 2048" width="1024" height="1024">
<path transform="translate(0,0)" fill="rgb(254,254,254)" d="M 0 0 L 2048 0 L 2048 2048 L 0 2048 L 0 0 z M 1482.55 755.05 C 1508.15 715.929 1517.75 671.11 1508.34 624.963 C 1499.06 579.431 1472.36 536.624 1433.26 510.934 C 1408 494.337 1374.49 481.091 1344.19 478.732 C 1350.88 411.105 1332.52 344.984 1289.1 292.079 C 1243.32 236.96 1177.36 202.494 1105.97 196.393 C 1085.45 194.456 1064.82 194.886 1044.23 194.885 L 962.972 194.86 L 873.98 194.554 C 852.71 194.485 831.181 194.053 809.985 196.063 C 758.91 200.907 712.095 221.722 672.927 254.535 C 625.473 294.291 594.326 356.045 588.945 417.376 C 587.302 436.106 588.269 454.557 589.172 473.274 C 535.137 479.557 489.405 499.131 454.899 542.679 C 422.08 584.098 407.378 634.664 413.49 687.222 C 418.971 734.368 444.003 780.843 481.341 810.425 C 521.342 842.117 559.138 848.764 608.618 846.998 C 634.313 918.64 672.199 954.262 731.045 998.641 C 754.034 1015.98 777.414 1032.76 803.549 1045.1 C 809.95 1048.08 816.384 1050.99 822.851 1053.83 C 823.125 1059.83 823.014 1066.2 823.869 1072.14 C 823.885 1078.6 823.701 1085.13 823.992 1091.58 C 786.631 1099.32 750.088 1110.57 714.854 1125.21 C 678.071 1143.14 642.315 1160.98 607.294 1182.36 C 595.133 1189.79 582.35 1197.33 571.101 1206.09 C 542.609 1227.07 515.263 1247.9 489.695 1272.47 C 397.013 1361.47 336.085 1478.41 316.256 1605.37 C 306.322 1670.68 305.645 1723.49 346.438 1779.2 C 374.508 1818.32 417.274 1844.34 464.912 1851.29 C 496.009 1856.05 538.736 1853.8 570.925 1853.32 L 1095.35 1853.11 L 1267.55 1853.15 C 1297.57 1853.14 1327.73 1853.75 1357.73 1852.99 C 1391.65 1852.27 1425.68 1852.84 1459.6 1852.84 C 1480.92 1852.84 1502.72 1853.61 1523.87 1850.48 C 1570.01 1843.65 1615.87 1814.92 1643.36 1777.45 C 1659.12 1755.96 1671.91 1731.05 1677.97 1704.99 C 1683.71 1680.28 1682.75 1654.46 1682.65 1629.25 L 1682.38 1558.77 C 1682.41 1541.94 1684.68 1519.19 1682.26 1503.09 L 1680.41 1502.12 C 1670.24 1501.52 1660 1502.13 1649.82 1502.46 C 1650.88 1479.61 1649.1 1455.98 1651.34 1433.33 C 1660.63 1429.03 1669.11 1423.14 1676.37 1415.92 C 1696.26 1395.84 1698.21 1373.46 1698.19 1346.64 C 1701.88 1346.3 1705.67 1346.03 1709.3 1345.24 C 1719.68 1342.98 1729.09 1335.72 1734.35 1326.56 C 1738.77 1318.86 1739.91 1310 1737.21 1301.5 C 1734.19 1292.03 1727.23 1284.74 1718.44 1280.42 C 1724.4 1276.19 1729.76 1272.55 1733.92 1266.34 C 1738.82 1259.03 1740.88 1250.2 1739.06 1241.52 C 1736.66 1230.07 1729 1223.07 1719.74 1216.88 C 1722.76 1215.06 1725.78 1213.09 1728.35 1210.65 C 1734.63 1204.7 1738.66 1195.19 1738.68 1186.56 C 1738.7 1177.76 1734.94 1169.47 1728.75 1163.29 C 1716.04 1150.59 1699.42 1152.24 1682.99 1152.18 L 1682.9 920.132 L 1683.06 853.238 C 1683.09 839.452 1684.05 824.999 1681.86 811.371 C 1679.73 798.144 1673.85 784.792 1664.49 775.065 C 1655.91 766.141 1645.45 760.636 1633.47 757.748 C 1614.74 753.231 1593.71 755.102 1574.54 755.197 C 1543.91 755.35 1513.16 756.133 1482.55 755.05 z"/>
<path transform="translate(0,0)" fill="rgb(199,227,234)" d="M 1482.55 755.05 C 1463.85 754.918 1426.55 752.39 1409.7 756.582 C 1409.8 756.099 1409.89 755.615 1410 755.134 C 1411.94 746.679 1418.76 737.752 1422.19 729.57 C 1432.84 704.163 1429.28 670.735 1415.35 647.254 C 1401.95 624.545 1380.01 608.152 1354.44 601.743 C 1343.98 599.128 1333.74 598.682 1323.01 599.077 C 1316.32 572.319 1307.55 541.361 1292.78 517.817 C 1275.24 510.628 1255.73 506.67 1237.59 500.961 C 1180.31 482.933 1122.58 466.898 1065.03 449.794 C 1006.72 431.95 948.238 414.697 889.582 398.037 C 869.463 392.447 848.971 384.287 828.275 381.533 C 799.227 377.668 767.06 379.59 739.784 390.918 C 731.095 394.527 722.006 399.064 714.512 404.8 C 685.825 426.755 663.796 468.524 650.384 501.526 C 635.082 538.597 621.375 576.308 609.304 614.553 C 585.741 606.604 564.783 604.882 541.793 616.077 C 522.165 625.635 509.486 643.49 502.603 663.843 C 495.236 685.628 496.345 708.935 506.628 729.544 C 516.879 750.089 533.414 766.249 555.467 773.583 C 567.881 777.712 581.001 778.07 593.952 777.351 C 595.945 801.399 602.18 823.858 608.618 846.998 C 559.138 848.764 521.342 842.117 481.341 810.425 C 444.003 780.843 418.971 734.368 413.49 687.222 C 407.378 634.664 422.08 584.098 454.899 542.679 C 489.405 499.131 535.137 479.557 589.172 473.274 C 588.269 454.557 587.302 436.106 588.945 417.376 C 594.326 356.045 625.473 294.291 672.927 254.535 C 712.095 221.722 758.91 200.907 809.985 196.063 C 831.181 194.053 852.71 194.485 873.98 194.554 L 962.972 194.86 L 1044.23 194.885 C 1064.82 194.886 1085.45 194.456 1105.97 196.393 C 1177.36 202.494 1243.32 236.96 1289.1 292.079 C 1332.52 344.984 1350.88 411.105 1344.19 478.732 C 1374.49 481.091 1408 494.337 1433.26 510.934 C 1472.36 536.624 1499.06 579.431 1508.34 624.963 C 1517.75 671.11 1508.15 715.929 1482.55 755.05 z"/>
<path transform="translate(0,0)" fill="rgb(244,203,185)" d="M 1409.7 756.582 C 1392.8 762.959 1380.05 774.93 1372.56 791.439 C 1370.69 795.579 1369.28 799.977 1368.08 804.354 C 1363.34 805.287 1357.55 811.13 1353.45 813.94 C 1339.5 823.5 1325.34 825.432 1308.86 826.43 C 1286.7 912.868 1231.42 987.115 1154.96 1033.13 C 1139.22 1042.6 1122.85 1051 1105.97 1058.25 C 1105.99 1068.25 1106.31 1078.37 1105.98 1088.35 C 1103.5 1082.36 1104.97 1066.06 1104.94 1059.02 C 1103.88 1059.5 1102.81 1059.97 1101.73 1060.42 C 1083.81 1067.98 1064.39 1072.8 1045.45 1077.04 C 963.431 1095.37 900.685 1084.93 823.832 1053.95 C 824.14 1060.07 824.197 1066.01 823.869 1072.14 C 823.014 1066.2 823.125 1059.83 822.851 1053.83 C 816.384 1050.99 809.95 1048.08 803.549 1045.1 C 777.414 1032.76 754.034 1015.98 731.045 998.641 C 672.199 954.262 634.313 918.64 608.618 846.998 C 602.18 823.858 595.945 801.399 593.952 777.351 C 581.001 778.07 567.881 777.712 555.467 773.583 C 533.414 766.249 516.879 750.089 506.628 729.544 C 496.345 708.935 495.236 685.628 502.603 663.843 C 509.486 643.49 522.165 625.635 541.793 616.077 C 564.783 604.882 585.741 606.604 609.304 614.553 C 621.375 576.308 635.082 538.597 650.384 501.526 C 663.796 468.524 685.825 426.755 714.512 404.8 C 722.006 399.064 731.095 394.527 739.784 390.918 C 767.06 379.59 799.227 377.668 828.275 381.533 C 848.971 384.287 869.463 392.447 889.582 398.037 C 948.238 414.697 1006.72 431.95 1065.03 449.794 C 1122.58 466.898 1180.31 482.933 1237.59 500.961 C 1255.73 506.67 1275.24 510.628 1292.78 517.817 C 1307.55 541.361 1316.32 572.319 1323.01 599.077 C 1333.74 598.682 1343.98 599.128 1354.44 601.743 C 1380.01 608.152 1401.95 624.545 1415.35 647.254 C 1429.28 670.735 1432.84 704.163 1422.19 729.57 C 1418.76 737.752 1411.94 746.679 1410 755.134 C 1409.89 755.615 1409.8 756.099 1409.7 756.582 z M 795.326 554.404 C 772.883 556.443 746.594 566.795 732.002 584.722 C 728.034 589.598 725.453 595.523 726.059 601.919 C 726.411 605.635 727.827 609.125 730.727 611.571 C 733.837 614.193 738.476 614.362 742.285 613.739 C 751.976 612.152 755.481 604.987 762.401 599.156 C 771.829 592.705 781.05 587.566 792.554 585.851 C 806.585 583.76 837.983 593.854 841.78 574.154 C 842.415 570.858 841.76 567.351 839.808 564.604 C 834.961 557.783 824.529 555.859 816.72 554.874 C 809.553 553.97 802.52 553.928 795.326 554.404 z M 1103.57 554.419 C 1094.28 555.062 1084.46 555.849 1077.85 563.395 C 1075.47 566.102 1073.98 569.471 1074.51 573.128 C 1075.18 577.826 1078.64 581.923 1082.48 584.46 C 1083.83 585.334 1085.21 586.171 1086.61 586.967 C 1111.89 583.415 1131.98 584 1153.25 599.961 C 1158.37 603.805 1162.92 608.298 1167.38 612.87 C 1170.78 615.361 1173.67 617.027 1178.02 616.237 C 1182.3 615.458 1188.01 612.357 1190.51 608.682 C 1192.32 606.006 1192.6 603.028 1191.76 599.964 C 1187.94 586.065 1167.39 572.019 1155.2 565.706 C 1139.34 557.311 1121.48 553.408 1103.57 554.419 z M 814.942 627.325 C 788.479 630.716 769.703 654.815 772.887 681.304 C 776.071 707.793 800.022 726.756 826.535 723.779 C 853.343 720.769 872.563 696.493 869.344 669.71 C 866.125 642.927 841.699 623.897 814.942 627.325 z M 1086.86 628.22 C 1060.68 633.696 1043.76 659.19 1048.87 685.443 C 1053.99 711.695 1079.25 728.966 1105.57 724.208 C 1122.92 721.072 1137.24 708.84 1143.05 692.193 C 1148.85 675.546 1145.25 657.062 1133.62 643.815 C 1121.98 630.569 1104.12 624.61 1086.86 628.22 z M 581.996 650.206 C 569.217 652.805 558.798 658.405 551.514 669.633 C 545.052 679.596 543.26 692.033 545.934 703.538 C 548.518 714.652 555.618 725.265 565.516 731.136 C 571.137 734.47 579.507 736.71 585.997 735.034 C 587.524 734.64 587.487 734.615 588.755 734.106 C 588.871 730.197 589.528 725.67 587.96 722.019 C 577.349 718.823 568.473 717.287 562.995 706.58 C 559.379 699.514 557.79 691.709 560.518 684.045 C 563.217 676.463 569.205 670.639 576.475 667.386 C 582.837 664.539 588.623 664.865 595.409 665.506 C 596.307 660.462 597.22 655.509 597.461 650.378 C 592.317 650.187 587.135 649.819 581.996 650.206 z M 1322.21 652.232 C 1323.53 657.505 1324.89 662.765 1326.31 668.012 C 1337.15 667.618 1346.26 668.225 1354.6 676.206 C 1360.25 681.636 1363.46 689.131 1363.47 696.97 C 1363.52 704.569 1360.69 712.023 1355.24 717.383 C 1348.94 723.561 1341.76 725.75 1333.16 726.161 L 1331.99 740.997 C 1337.17 741.047 1342.06 741.197 1347.15 740.094 C 1359.24 736.004 1369.42 728.89 1375.1 717.073 C 1380.51 705.797 1380.32 692.454 1376.06 680.83 C 1371.94 669.571 1363.74 660.904 1352.82 655.983 C 1342.79 651.467 1332.91 651.315 1322.21 652.232 z M 962.541 689.262 C 947.898 691.805 935.482 697.176 926.678 709.802 C 918.737 721.191 916.139 735.995 918.793 749.535 C 921.418 762.93 929.159 775.945 940.602 783.602 C 951.019 790.573 964.678 793.455 976.976 790.706 C 983.089 789.34 989.183 786.985 993.996 782.912 C 993.419 779.265 992.958 775.897 989.837 773.507 C 987.622 771.81 985.203 771.832 982.575 772.381 C 969.995 775.009 963.267 778.746 950.98 771.357 C 942.185 766.068 935.794 756.624 933.679 746.623 C 931.711 737.314 933.358 727.312 938.862 719.465 C 945.17 710.471 951.646 707.602 962.073 706.022 C 968.441 705.057 975.239 705.047 980.231 700.524 C 981.162 697.819 981.39 697.333 980.07 694.6 C 978.868 692.114 976.077 690.173 973.451 689.532 C 969.923 688.671 966.121 688.964 962.541 689.262 z M 755.528 724.084 C 717.358 728.336 689.93 762.825 694.381 800.971 C 698.832 839.118 733.463 866.366 771.586 861.716 C 809.429 857.101 836.433 822.779 832.015 784.913 C 827.597 747.046 793.417 719.863 755.528 724.084 z M 1150.78 727.67 C 1112.76 731.681 1085.11 765.632 1088.88 803.675 C 1092.64 841.719 1126.42 869.585 1164.48 866.059 C 1202.9 862.501 1231.07 828.355 1227.27 789.967 C 1223.46 751.578 1189.14 723.623 1150.78 727.67 z M 1040.8 830.585 C 1040.62 830.823 1040.45 831.058 1040.28 831.301 C 1035.61 838.129 1035.38 848.669 1033.07 856.59 C 1025.97 880.891 1001.03 898.244 977.08 903.153 C 957.31 907.205 936.338 903.735 919.468 892.468 C 904.152 882.237 892.082 866.035 888.715 847.649 C 887.739 842.316 888.207 835.646 883.353 832.196 C 880.758 831.8 879.389 831.901 876.898 832.733 C 872.44 836.467 869.444 852.216 865.521 858.636 C 856.515 873.373 836.579 876.124 835.206 885.685 C 834.937 887.561 835.712 888.312 836.524 889.921 C 839.518 892.22 841.968 893.129 845.815 892.756 C 854.889 891.876 868.1 878.197 874.015 871.693 L 878.489 865.786 C 888.053 888.175 903.411 904.059 926.181 913.23 C 948.843 922.359 975.894 922.449 998.357 912.648 C 1019.22 903.39 1035.95 886.795 1045.38 866.012 C 1053.54 879.1 1062.91 889.814 1078.53 893.846 C 1081.4 894.587 1083.94 894.843 1086.6 893.244 C 1088.3 892.226 1089.01 891.092 1089.96 889.44 C 1089.81 886.33 1089.18 884.689 1086.78 882.596 C 1076.99 874.081 1066.16 870.593 1057.95 859.594 C 1050.72 849.925 1054.45 832.473 1040.8 830.585 z"/>
<path transform="translate(0,0)" fill="rgb(254,254,254)" d="M 762.401 599.156 C 755.481 604.987 751.976 612.152 742.285 613.739 C 738.476 614.362 733.837 614.193 730.727 611.571 C 727.827 609.125 726.411 605.635 726.059 601.919 C 725.453 595.523 728.034 589.598 732.002 584.722 C 746.594 566.795 772.883 556.443 795.326 554.404 C 802.52 553.928 809.553 553.97 816.72 554.874 C 824.529 555.859 834.961 557.783 839.808 564.604 C 841.76 567.351 842.415 570.858 841.78 574.154 C 837.983 593.854 806.585 583.76 792.554 585.851 C 781.05 587.566 771.829 592.705 762.401 599.156 z"/>
<path transform="translate(0,0)" fill="rgb(254,254,254)" d="M 1086.61 586.967 C 1085.21 586.171 1083.83 585.334 1082.48 584.46 C 1078.64 581.923 1075.18 577.826 1074.51 573.128 C 1073.98 569.471 1075.47 566.102 1077.85 563.395 C 1084.46 555.849 1094.28 555.062 1103.57 554.419 C 1121.48 553.408 1139.34 557.311 1155.2 565.706 C 1167.39 572.019 1187.94 586.065 1191.76 599.964 C 1192.6 603.028 1192.32 606.006 1190.51 608.682 C 1188.01 612.357 1182.3 615.458 1178.02 616.237 C 1173.67 617.027 1170.78 615.361 1167.38 612.87 C 1162.92 608.298 1158.37 603.805 1153.25 599.961 C 1131.98 584 1111.89 583.415 1086.61 586.967 z"/>
<path transform="translate(0,0)" fill="rgb(1,2,30)" d="M 826.535 723.779 C 800.022 726.756 776.071 707.793 772.887 681.304 C 769.703 654.815 788.479 630.716 814.942 627.325 C 841.699 623.897 866.125 642.927 869.344 669.71 C 872.563 696.493 853.343 720.769 826.535 723.779 z M 833.912 650.57 C 826.353 651.197 820.672 657.733 821.103 665.305 C 821.535 672.877 827.921 678.726 835.502 678.491 C 840.583 678.334 845.179 675.432 847.506 670.912 C 849.833 666.391 849.524 660.964 846.699 656.737 C 843.874 652.51 838.978 650.149 833.912 650.57 z"/>
<path transform="translate(0,0)" fill="rgb(1,2,30)" d="M 1105.57 724.208 C 1079.25 728.966 1053.99 711.695 1048.87 685.443 C 1043.76 659.19 1060.68 633.696 1086.86 628.22 C 1104.12 624.61 1121.98 630.569 1133.62 643.815 C 1145.25 657.062 1148.85 675.546 1143.05 692.193 C 1137.24 708.84 1122.92 721.072 1105.57 724.208 z M 1109.17 649.928 C 1104.48 652.257 1100.05 654.864 1098.44 660.196 C 1097.36 663.765 1097.8 667.022 1099.65 670.273 C 1101.93 674.277 1106.98 676.599 1111.31 677.42 C 1111.72 677.498 1112.13 677.536 1112.55 677.594 C 1117.35 675.572 1120.43 673.712 1122.38 668.667 C 1123.8 664.97 1124.03 660.779 1122.34 657.133 C 1120.95 654.173 1118.47 651.87 1115.42 650.709 C 1113.36 649.951 1111.32 649.974 1109.17 649.928 z"/>
<path transform="translate(0,0)" fill="rgb(1,2,30)" d="M 588.755 734.106 C 587.487 734.615 587.524 734.64 585.997 735.034 C 579.507 736.71 571.137 734.47 565.516 731.136 C 555.618 725.265 548.518 714.652 545.934 703.538 C 543.26 692.033 545.052 679.596 551.514 669.633 C 558.798 658.405 569.217 652.805 581.996 650.206 C 587.135 649.819 592.317 650.187 597.461 650.378 C 597.22 655.509 596.307 660.462 595.409 665.506 C 588.623 664.865 582.837 664.539 576.475 667.386 C 569.205 670.639 563.217 676.463 560.518 684.045 C 557.79 691.709 559.379 699.514 562.995 706.58 C 568.473 717.287 577.349 718.823 587.96 722.019 C 589.528 725.67 588.871 730.197 588.755 734.106 z"/>
<path transform="translate(0,0)" fill="rgb(254,254,254)" d="M 835.502 678.491 C 827.921 678.726 821.535 672.877 821.103 665.305 C 820.672 657.733 826.353 651.197 833.912 650.57 C 838.978 650.149 843.874 652.51 846.699 656.737 C 849.524 660.964 849.833 666.391 847.506 670.912 C 845.179 675.432 840.583 678.334 835.502 678.491 z"/>
<path transform="translate(0,0)" fill="rgb(254,254,254)" d="M 1112.55 677.594 C 1112.13 677.536 1111.72 677.498 1111.31 677.42 C 1106.98 676.599 1101.93 674.277 1099.65 670.273 C 1097.8 667.022 1097.36 663.765 1098.44 660.196 C 1100.05 654.864 1104.48 652.257 1109.17 649.928 C 1111.32 649.974 1113.36 649.951 1115.42 650.709 C 1118.47 651.87 1120.95 654.173 1122.34 657.133 C 1124.03 660.779 1123.8 664.97 1122.38 668.667 C 1120.43 673.712 1117.35 675.572 1112.55 677.594 z"/>
<path transform="translate(0,0)" fill="rgb(1,2,30)" d="M 1326.31 668.012 C 1324.89 662.765 1323.53 657.505 1322.21 652.232 C 1332.91 651.315 1342.79 651.467 1352.82 655.983 C 1363.74 660.904 1371.94 669.571 1376.06 680.83 C 1380.32 692.454 1380.51 705.797 1375.1 717.073 C 1369.42 728.89 1359.24 736.004 1347.15 740.094 C 1342.06 741.197 1337.17 741.047 1331.99 740.997 L 1333.16 726.161 C 1341.76 725.75 1348.94 723.561 1355.24 717.383 C 1360.69 712.023 1363.52 704.569 1363.47 696.97 C 1363.46 689.131 1360.25 681.636 1354.6 676.206 C 1346.26 668.225 1337.15 667.618 1326.31 668.012 z"/>
<path transform="translate(0,0)" fill="rgb(1,2,30)" d="M 993.996 782.912 C 989.183 786.985 983.089 789.34 976.976 790.706 C 964.678 793.455 951.019 790.573 940.602 783.602 C 929.159 775.945 921.418 762.93 918.793 749.535 C 916.139 735.995 918.737 721.191 926.678 709.802 C 935.482 697.176 947.898 691.805 962.541 689.262 C 966.121 688.964 969.923 688.671 973.451 689.532 C 976.077 690.173 978.868 692.114 980.07 694.6 C 981.39 697.333 981.162 697.819 980.231 700.524 C 975.239 705.047 968.441 705.057 962.073 706.022 C 951.646 707.602 945.17 710.471 938.862 719.465 C 933.358 727.312 931.711 737.314 933.679 746.623 C 935.794 756.624 942.185 766.068 950.98 771.357 C 963.267 778.746 969.995 775.009 982.575 772.381 C 985.203 771.832 987.622 771.81 989.837 773.507 C 992.958 775.897 993.419 779.265 993.996 782.912 z"/>
<path transform="translate(0,0)" fill="rgb(230,145,137)" d="M 771.586 861.716 C 733.463 866.366 698.832 839.118 694.381 800.971 C 689.93 762.825 717.358 728.336 755.528 724.084 C 793.417 719.863 827.597 747.046 832.015 784.913 C 836.433 822.779 809.429 857.101 771.586 861.716 z"/>
<path transform="translate(0,0)" fill="rgb(230,145,137)" d="M 1164.48 866.059 C 1126.42 869.585 1092.64 841.719 1088.88 803.675 C 1085.11 765.632 1112.76 731.681 1150.78 727.67 C 1189.14 723.623 1223.46 751.578 1227.27 789.967 C 1231.07 828.355 1202.9 862.501 1164.48 866.059 z"/>
<path transform="translate(0,0)" fill="rgb(1,2,30)" d="M 1409.7 756.582 C 1426.55 752.39 1463.85 754.918 1482.55 755.05 C 1513.16 756.133 1543.91 755.35 1574.54 755.197 C 1593.71 755.102 1614.74 753.231 1633.47 757.748 C 1645.45 760.636 1655.91 766.141 1664.49 775.065 C 1673.85 784.792 1679.73 798.144 1681.86 811.371 C 1684.05 824.999 1683.09 839.452 1683.06 853.238 L 1682.9 920.132 L 1682.99 1152.18 C 1699.42 1152.24 1716.04 1150.59 1728.75 1163.29 C 1734.94 1169.47 1738.7 1177.76 1738.68 1186.56 C 1738.66 1195.19 1734.63 1204.7 1728.35 1210.65 C 1725.78 1213.09 1722.76 1215.06 1719.74 1216.88 C 1729 1223.07 1736.66 1230.07 1739.06 1241.52 C 1740.88 1250.2 1738.82 1259.03 1733.92 1266.34 C 1729.76 1272.55 1724.4 1276.19 1718.44 1280.42 C 1727.23 1284.74 1734.19 1292.03 1737.21 1301.5 C 1739.91 1310 1738.77 1318.86 1734.35 1326.56 C 1729.09 1335.72 1719.68 1342.98 1709.3 1345.24 C 1705.67 1346.03 1701.88 1346.3 1698.19 1346.64 C 1698.21 1373.46 1696.26 1395.84 1676.37 1415.92 C 1669.11 1423.14 1660.63 1429.03 1651.34 1433.33 C 1625.86 1439.42 1598.38 1437.36 1572.29 1437.32 C 1529.52 1437.27 1486.37 1435.94 1443.64 1437.48 C 1441.23 1458.41 1445.65 1480.42 1442.74 1501.29 L 1441.44 1502.11 C 1439.05 1502.12 1436.96 1502.27 1434.74 1501.22 C 1432.32 1496.76 1433.51 1446.35 1433.44 1437.41 C 1416.66 1435.59 1403.2 1428.9 1391.18 1417.06 C 1365.84 1392.08 1368.01 1365.03 1368.05 1332.02 L 1367.91 1276.8 C 1368.19 1260.69 1367.96 1244.55 1367.95 1228.43 L 1368.08 1218.91 L 1367.86 1049.76 C 1368.34 998.105 1368.21 946.446 1367.46 894.794 C 1367.12 869.517 1364.64 828.042 1368.08 804.354 C 1369.28 799.977 1370.69 795.579 1372.56 791.439 C 1380.05 774.93 1392.8 762.959 1409.7 756.582 z M 1488.48 800.077 C 1486.44 802.388 1485.21 803.856 1484.51 806.972 C 1485.19 809.401 1485.82 810.909 1488.19 812.175 C 1493.68 815.11 1562.1 814.27 1572.75 813.554 C 1574.6 811.423 1576.35 809.391 1576.49 806.402 C 1576.59 804.188 1575.43 802.516 1573.74 801.209 C 1570.03 798.332 1497.91 799.13 1488.48 800.077 z M 1417.44 842.502 L 1391.45 842.726 L 1391.75 1344.47 L 1615.56 1344.26 C 1604.55 1339.34 1596.63 1333.44 1592.39 1321.54 C 1589.48 1313.4 1589.61 1304.48 1593.52 1296.7 C 1594.81 1294.14 1596.44 1291.95 1598.25 1289.75 L 1605.37 1283.64 C 1594.12 1280.39 1585.37 1276.77 1579.14 1266.07 C 1574.28 1257.65 1572.96 1247.63 1575.48 1238.24 C 1578.1 1229.03 1584.4 1221.3 1592.89 1216.88 C 1595.79 1215.35 1598.91 1214.18 1601.97 1213 C 1594.58 1206.97 1589.32 1200.93 1588.13 1191.01 C 1587 1181.69 1590.23 1172.03 1596.15 1164.84 C 1603.15 1156.34 1612.93 1152.49 1623.7 1151.78 C 1636.02 1150.98 1648.79 1151.76 1661.14 1151.99 L 1661.65 842.329 L 1417.44 842.502 z M 1699.75 1161.44 C 1682.82 1162.17 1665.9 1162 1648.96 1161.85 C 1638.43 1161.75 1626.14 1160.34 1615.84 1162.54 C 1611.11 1163.55 1607.1 1165.74 1603.85 1169.35 C 1599.7 1173.97 1596.6 1181.18 1596.99 1187.45 C 1597.42 1194.34 1600.56 1200.5 1605.77 1204.99 C 1611.88 1210.25 1617.93 1211.27 1625.75 1211.12 L 1673.61 1211.28 C 1684.98 1211.37 1697.74 1212.65 1708.83 1210.35 C 1713.66 1209.32 1718.13 1206.99 1721.74 1203.62 C 1726.21 1199.4 1729.04 1193.74 1729.19 1187.55 C 1729.35 1180.56 1726.02 1173.93 1721.07 1169.12 C 1715.03 1163.25 1707.92 1161.76 1699.75 1161.44 z M 1607.65 1222.46 C 1599.65 1223.71 1593.35 1226.5 1588.51 1233.25 C 1584.56 1238.75 1581.81 1246.6 1583.28 1253.36 C 1584.75 1260.15 1589.19 1266.47 1595.23 1269.95 C 1607.44 1277 1686.9 1273.43 1705.72 1273.21 C 1713.68 1272.02 1720.32 1269.77 1725.3 1263.08 C 1729.2 1257.85 1731.19 1251.98 1730.23 1245.45 C 1729.1 1238.27 1725.19 1231.84 1719.35 1227.53 C 1716.18 1225.19 1712.71 1223.71 1708.85 1223.01 C 1695.98 1220.69 1681.22 1222.04 1668.12 1222.07 C 1648.01 1222.12 1627.74 1221.7 1607.65 1222.46 z M 1621.93 1286.46 C 1615.02 1287.75 1607.75 1291.58 1603.88 1297.64 C 1600.31 1303.23 1599.57 1310.14 1601.21 1316.49 C 1603.27 1324.44 1608.06 1330.42 1614.3 1335.54 C 1631.98 1339.01 1686.46 1337.78 1707.04 1337.01 C 1715.03 1334.52 1722.32 1330.37 1726.17 1322.57 C 1729.04 1316.75 1729.66 1308.91 1727.57 1302.75 C 1725.35 1296.17 1720.06 1291.28 1713.82 1288.49 C 1701.67 1283.06 1638.51 1285.95 1621.93 1286.46 z M 1527.39 1355.15 C 1515.91 1356.49 1506.04 1363.89 1501.55 1374.54 C 1497.05 1385.18 1498.63 1397.42 1505.68 1406.58 C 1512.73 1415.73 1524.16 1420.39 1535.6 1418.77 C 1552.98 1416.31 1565.15 1400.32 1562.91 1382.91 C 1560.66 1365.5 1544.83 1353.12 1527.39 1355.15 z"/>
<path transform="translate(0,0)" fill="rgb(254,254,254)" d="M 1572.75 813.554 C 1562.1 814.27 1493.68 815.11 1488.19 812.175 C 1485.82 810.909 1485.19 809.401 1484.51 806.972 C 1485.21 803.856 1486.44 802.388 1488.48 800.077 C 1497.91 799.13 1570.03 798.332 1573.74 801.209 C 1575.43 802.516 1576.59 804.188 1576.49 806.402 C 1576.35 809.391 1574.6 811.423 1572.75 813.554 z"/>
<path transform="translate(0,0)" fill="rgb(254,254,254)" d="M 1308.86 826.43 C 1325.34 825.432 1339.5 823.5 1353.45 813.94 C 1357.55 811.13 1363.34 805.287 1368.08 804.354 C 1364.64 828.042 1367.12 869.517 1367.46 894.794 C 1368.21 946.446 1368.34 998.105 1367.86 1049.76 C 1367.55 1049.69 1367.24 1049.66 1366.94 1049.57 C 1365.3 1049.06 1364.28 1048.21 1362.87 1047.27 C 1351.32 1039.52 1339.76 1034.94 1325.74 1037.79 C 1314.52 1040.06 1304.38 1045.26 1297.95 1055.05 C 1292.09 1063.97 1290.99 1075.18 1293.43 1085.43 C 1294.92 1091.7 1297.63 1097.59 1300.67 1103.25 C 1314.33 1128.63 1330.8 1152.65 1345.14 1177.66 C 1352.66 1190.79 1358.49 1207.32 1368.08 1218.91 L 1367.95 1228.43 C 1329.93 1187.26 1295.6 1166.35 1246.19 1141.19 C 1233.53 1134.74 1217.75 1130.22 1206.14 1122.36 C 1201.55 1114.78 1120.58 1093.27 1106.44 1089.45 L 1105.98 1088.35 C 1106.31 1078.37 1105.99 1068.25 1105.97 1058.25 C 1122.85 1051 1139.22 1042.6 1154.96 1033.13 C 1231.42 987.115 1286.7 912.868 1308.86 826.43 z"/>
<path transform="translate(0,0)" fill="rgb(1,2,30)" d="M 874.015 871.693 C 868.1 878.197 854.889 891.876 845.815 892.756 C 841.968 893.129 839.518 892.22 836.524 889.921 C 835.712 888.312 834.937 887.561 835.206 885.685 C 836.579 876.124 856.515 873.373 865.521 858.636 C 869.444 852.216 872.44 836.467 876.898 832.733 C 879.389 831.901 880.758 831.8 883.353 832.196 C 888.207 835.646 887.739 842.316 888.715 847.649 C 892.082 866.035 904.152 882.237 919.468 892.468 C 936.338 903.735 957.31 907.205 977.08 903.153 C 1001.03 898.244 1025.97 880.891 1033.07 856.59 C 1035.38 848.669 1035.61 838.129 1040.28 831.301 C 1040.45 831.058 1040.62 830.823 1040.8 830.585 C 1054.45 832.473 1050.72 849.925 1057.95 859.594 C 1066.16 870.593 1076.99 874.081 1086.78 882.596 C 1089.18 884.689 1089.81 886.33 1089.96 889.44 C 1089.01 891.092 1088.3 892.226 1086.6 893.244 C 1083.94 894.843 1081.4 894.587 1078.53 893.846 C 1062.91 889.814 1053.54 879.1 1045.38 866.012 C 1035.95 886.795 1019.22 903.39 998.357 912.648 C 975.894 922.449 948.843 922.359 926.181 913.23 C 903.411 904.059 888.053 888.175 878.489 865.786 L 874.015 871.693 z"/>
<path transform="translate(0,0)" fill="rgb(27,161,156)" d="M 1391.45 842.726 L 1417.44 842.502 L 1661.65 842.329 L 1661.14 1151.99 C 1648.79 1151.76 1636.02 1150.98 1623.7 1151.78 C 1612.93 1152.49 1603.15 1156.34 1596.15 1164.84 C 1590.23 1172.03 1587 1181.69 1588.13 1191.01 C 1589.32 1200.93 1594.58 1206.97 1601.97 1213 C 1598.91 1214.18 1595.79 1215.35 1592.89 1216.88 C 1584.4 1221.3 1578.1 1229.03 1575.48 1238.24 C 1572.96 1247.63 1574.28 1257.65 1579.14 1266.07 C 1585.37 1276.77 1594.12 1280.39 1605.37 1283.64 L 1598.25 1289.75 C 1596.44 1291.95 1594.81 1294.14 1593.52 1296.7 C 1589.61 1304.48 1589.48 1313.4 1592.39 1321.54 C 1596.63 1333.44 1604.55 1339.34 1615.56 1344.26 L 1391.75 1344.47 L 1391.45 842.726 z M 1526.72 1000.7 C 1499.99 1003.89 1480.84 1028.04 1483.83 1054.79 C 1486.81 1081.54 1510.82 1100.88 1537.59 1098.1 C 1564.66 1095.29 1584.26 1070.97 1581.24 1043.92 C 1578.22 1016.87 1553.74 997.467 1526.72 1000.7 z"/>
<path transform="translate(0,0)" fill="rgb(254,254,254)" d="M 1537.59 1098.1 C 1510.82 1100.88 1486.81 1081.54 1483.83 1054.79 C 1480.84 1028.04 1499.99 1003.89 1526.72 1000.7 C 1553.74 997.467 1578.22 1016.87 1581.24 1043.92 C 1584.26 1070.97 1564.66 1095.29 1537.59 1098.1 z M 1527.34 1013.98 C 1514.4 1015.4 1503.24 1023.7 1498.16 1035.68 C 1493.07 1047.66 1494.85 1061.45 1502.81 1071.74 C 1510.78 1082.04 1523.68 1087.23 1536.55 1085.32 C 1555.94 1082.44 1569.45 1064.57 1566.94 1045.13 C 1564.43 1025.69 1546.82 1011.84 1527.34 1013.98 z"/>
<path transform="translate(0,0)" fill="rgb(27,161,156)" d="M 1536.55 1085.32 C 1523.68 1087.23 1510.78 1082.04 1502.81 1071.74 C 1494.85 1061.45 1493.07 1047.66 1498.16 1035.68 C 1503.24 1023.7 1514.4 1015.4 1527.34 1013.98 C 1546.82 1011.84 1564.43 1025.69 1566.94 1045.13 C 1569.45 1064.57 1555.94 1082.44 1536.55 1085.32 z"/>
<path transform="translate(0,0)" fill="rgb(244,203,185)" d="M 1368.08 1218.91 C 1358.49 1207.32 1352.66 1190.79 1345.14 1177.66 C 1330.8 1152.65 1314.33 1128.63 1300.67 1103.25 C 1297.63 1097.59 1294.92 1091.7 1293.43 1085.43 C 1290.99 1075.18 1292.09 1063.97 1297.95 1055.05 C 1304.38 1045.26 1314.52 1040.06 1325.74 1037.79 C 1339.76 1034.94 1351.32 1039.52 1362.87 1047.27 C 1364.28 1048.21 1365.3 1049.06 1366.94 1049.57 C 1367.24 1049.66 1367.55 1049.69 1367.86 1049.76 L 1368.08 1218.91 z"/>
<path transform="translate(0,0)" fill="rgb(230,145,137)" d="M 823.869 1072.14 C 824.197 1066.01 824.14 1060.07 823.832 1053.95 C 900.685 1084.93 963.431 1095.37 1045.45 1077.04 C 1064.39 1072.8 1083.81 1067.98 1101.73 1060.42 C 1102.81 1059.97 1103.88 1059.5 1104.94 1059.02 C 1104.97 1066.06 1103.5 1082.36 1105.98 1088.35 L 1106.44 1089.45 C 1105.08 1098.36 1106.08 1107.55 1105.83 1116.54 C 1105.03 1112.73 1105.01 1108.62 1104.76 1104.74 C 1076.96 1119.79 1047.09 1127.78 1016.1 1132.96 C 957.529 1142.77 873.491 1132.46 825.099 1097.92 C 825.191 1103.8 825.058 1109.61 824.812 1115.48 C 823.735 1107.73 824.142 1099.42 823.992 1091.58 C 823.701 1085.13 823.885 1078.6 823.869 1072.14 z"/>
<path transform="translate(0,0)" fill="rgb(1,2,30)" d="M 1105.83 1116.54 C 1106.08 1107.55 1105.08 1098.36 1106.44 1089.45 C 1120.58 1093.27 1201.55 1114.78 1206.14 1122.36 C 1205.12 1155.68 1205.74 1189.13 1205.71 1222.47 C 1205.68 1248.07 1207.69 1275.08 1201 1300.04 C 1195.39 1320.82 1184.23 1339.67 1168.71 1354.58 C 1145.16 1376.81 1114.65 1387.35 1082.48 1386.35 C 1053.04 1385.44 1025.27 1374.79 1004.97 1353.03 C 981.968 1328.37 970.309 1296.9 969.115 1263.39 L 967.727 1261.43 L 965.466 1261.15 C 960.141 1267.53 960.235 1291.23 958.094 1300.43 C 947.375 1346.49 906.971 1382.45 859.744 1386.59 C 826.214 1389.53 795.743 1380.4 770.067 1358.51 C 739.921 1332.8 726.42 1302.74 723.493 1263.52 C 720.057 1217.49 719.532 1171.14 714.854 1125.21 C 750.088 1110.57 786.631 1099.32 823.992 1091.58 C 824.142 1099.42 823.735 1107.73 824.812 1115.48 C 825.163 1153.92 836.336 1189.62 864.348 1216.96 C 892.663 1244.6 932.844 1256.03 971.702 1255.3 C 1007.63 1254.62 1045.08 1240.72 1070.26 1214.52 C 1094.38 1189.43 1106.94 1153.77 1105.95 1119.24 C 1105.92 1118.34 1105.88 1117.44 1105.83 1116.54 z"/>
<path transform="translate(0,0)" fill="rgb(244,203,185)" d="M 824.812 1115.48 C 825.058 1109.61 825.191 1103.8 825.099 1097.92 C 873.491 1132.46 957.529 1142.77 1016.1 1132.96 C 1047.09 1127.78 1076.96 1119.79 1104.76 1104.74 C 1105.01 1108.62 1105.03 1112.73 1105.83 1116.54 C 1105.88 1117.44 1105.92 1118.34 1105.95 1119.24 C 1106.94 1153.77 1094.38 1189.43 1070.26 1214.52 C 1045.08 1240.72 1007.63 1254.62 971.702 1255.3 C 932.844 1256.03 892.663 1244.6 864.348 1216.96 C 836.336 1189.62 825.163 1153.92 824.812 1115.48 z"/>
<path transform="translate(0,0)" fill="rgb(27,161,156)" d="M 1206.14 1122.36 C 1217.75 1130.22 1233.53 1134.74 1246.19 1141.19 C 1295.6 1166.35 1329.93 1187.26 1367.95 1228.43 C 1367.96 1244.55 1368.19 1260.69 1367.91 1276.8 C 1364.68 1277.43 1363.04 1277.31 1360.61 1279.61 C 1358.07 1292.84 1359.84 1312.7 1359.58 1326.61 C 1358.85 1365.36 1357.8 1404.02 1357.7 1442.79 L 1357.73 1852.99 C 1327.73 1853.75 1297.57 1853.14 1267.55 1853.15 L 1095.35 1853.11 L 570.925 1853.32 C 569.617 1783.01 571.053 1712.38 571.055 1642.04 L 571.101 1206.09 C 582.35 1197.33 595.133 1189.79 607.294 1182.36 C 642.315 1160.98 678.071 1143.14 714.854 1125.21 C 719.532 1171.14 720.057 1217.49 723.493 1263.52 C 726.42 1302.74 739.921 1332.8 770.067 1358.51 C 795.743 1380.4 826.214 1389.53 859.744 1386.59 C 906.971 1382.45 947.375 1346.49 958.094 1300.43 C 960.235 1291.23 960.141 1267.53 965.466 1261.15 L 967.727 1261.43 L 969.115 1263.39 C 970.309 1296.9 981.968 1328.37 1004.97 1353.03 C 1025.27 1374.79 1053.04 1385.44 1082.48 1386.35 C 1114.65 1387.35 1145.16 1376.81 1168.71 1354.58 C 1184.23 1339.67 1195.39 1320.82 1201 1300.04 C 1207.69 1275.08 1205.68 1248.07 1205.71 1222.47 C 1205.74 1189.13 1205.12 1155.68 1206.14 1122.36 z M 959.98 1452.82 C 939.348 1454.38 923.871 1472.34 925.379 1492.98 C 926.887 1513.62 944.811 1529.14 965.452 1527.69 C 986.17 1526.23 1001.77 1508.22 1000.25 1487.51 C 998.738 1466.79 980.69 1451.25 959.98 1452.82 z M 956.694 1588.44 C 936.315 1591.91 922.639 1611.28 926.194 1631.64 C 929.75 1652.01 949.183 1665.6 969.532 1661.96 C 989.757 1658.34 1003.25 1639.05 999.715 1618.81 C 996.181 1598.57 976.95 1584.99 956.694 1588.44 z M 955.637 1716.69 C 935.466 1720.65 922.27 1740.15 926.079 1760.35 C 929.887 1780.55 949.274 1793.9 969.504 1790.25 C 989.962 1786.56 1003.49 1766.91 999.644 1746.48 C 995.793 1726.05 976.034 1712.67 955.637 1716.69 z"/>
<path transform="translate(0,0)" fill="rgb(244,203,185)" d="M 1625.75 1211.12 C 1617.93 1211.27 1611.88 1210.25 1605.77 1204.99 C 1600.56 1200.5 1597.42 1194.34 1596.99 1187.45 C 1596.6 1181.18 1599.7 1173.97 1603.85 1169.35 C 1607.1 1165.74 1611.11 1163.55 1615.84 1162.54 C 1626.14 1160.34 1638.43 1161.75 1648.96 1161.85 C 1665.9 1162 1682.82 1162.17 1699.75 1161.44 C 1707.92 1161.76 1715.03 1163.25 1721.07 1169.12 C 1726.02 1173.93 1729.35 1180.56 1729.19 1187.55 C 1729.04 1193.74 1726.21 1199.4 1721.74 1203.62 C 1718.13 1206.99 1713.66 1209.32 1708.83 1210.35 C 1697.74 1212.65 1684.98 1211.37 1673.61 1211.28 L 1625.75 1211.12 z"/>
<path transform="translate(0,0)" fill="rgb(235,78,72)" d="M 570.925 1853.32 C 538.736 1853.8 496.009 1856.05 464.912 1851.29 C 417.274 1844.34 374.508 1818.32 346.438 1779.2 C 305.645 1723.49 306.322 1670.68 316.256 1605.37 C 336.085 1478.41 397.013 1361.47 489.695 1272.47 C 515.263 1247.9 542.609 1227.07 571.101 1206.09 L 571.055 1642.04 C 571.053 1712.38 569.617 1783.01 570.925 1853.32 z"/>
<path transform="translate(0,0)" fill="rgb(244,203,185)" d="M 1705.72 1273.21 C 1686.9 1273.43 1607.44 1277 1595.23 1269.95 C 1589.19 1266.47 1584.75 1260.15 1583.28 1253.36 C 1581.81 1246.6 1584.56 1238.75 1588.51 1233.25 C 1593.35 1226.5 1599.65 1223.71 1607.65 1222.46 C 1627.74 1221.7 1648.01 1222.12 1668.12 1222.07 C 1681.22 1222.04 1695.98 1220.69 1708.85 1223.01 C 1712.71 1223.71 1716.18 1225.19 1719.35 1227.53 C 1725.19 1231.84 1729.1 1238.27 1730.23 1245.45 C 1731.19 1251.98 1729.2 1257.85 1725.3 1263.08 C 1720.32 1269.77 1713.68 1272.02 1705.72 1273.21 z"/>
<path transform="translate(0,0)" fill="rgb(235,78,72)" d="M 1357.73 1852.99 L 1357.7 1442.79 C 1357.8 1404.02 1358.85 1365.36 1359.58 1326.61 C 1359.84 1312.7 1358.07 1292.84 1360.61 1279.61 C 1363.04 1277.31 1364.68 1277.43 1367.91 1276.8 L 1368.05 1332.02 C 1368.01 1365.03 1365.84 1392.08 1391.18 1417.06 C 1403.2 1428.9 1416.66 1435.59 1433.44 1437.41 C 1433.51 1446.35 1432.32 1496.76 1434.74 1501.22 C 1436.96 1502.27 1439.05 1502.12 1441.44 1502.11 L 1442.74 1501.29 C 1445.65 1480.42 1441.23 1458.41 1443.64 1437.48 L 1443.73 1502.65 C 1496.71 1503.02 1549.69 1503.12 1602.67 1502.94 C 1622.73 1502.98 1662.6 1505.17 1680.41 1502.12 L 1682.26 1503.09 C 1684.68 1519.19 1682.41 1541.94 1682.38 1558.77 L 1682.65 1629.25 C 1682.75 1654.46 1683.71 1680.28 1677.97 1704.99 C 1671.91 1731.05 1659.12 1755.96 1643.36 1777.45 C 1615.87 1814.92 1570.01 1843.65 1523.87 1850.48 C 1502.72 1853.61 1480.92 1852.84 1459.6 1852.84 C 1425.68 1852.84 1391.65 1852.27 1357.73 1852.99 z M 1416.16 1502.71 C 1411.5 1507.01 1410.16 1508.68 1409.94 1515.15 C 1408.79 1548.36 1410.05 1582.13 1410.35 1615.38 C 1410.54 1636.12 1409.27 1657.96 1410.89 1678.58 C 1411.07 1680.95 1411.25 1683.24 1412.88 1685.1 C 1414.74 1687.24 1417.55 1687.92 1420.29 1687.77 C 1420.6 1687.75 1420.9 1687.69 1421.21 1687.66 C 1425.67 1683.44 1426.79 1681.52 1426.95 1675.35 C 1427.85 1642.29 1427.02 1609.04 1427.2 1575.95 C 1427.31 1555.82 1429.3 1534.24 1427.22 1514.34 C 1426.91 1511.34 1426.27 1509.12 1424.23 1506.8 C 1422.11 1504.38 1419.28 1503.24 1416.16 1502.71 z"/>
<path transform="translate(0,0)" fill="rgb(244,203,185)" d="M 1614.3 1335.54 C 1608.06 1330.42 1603.27 1324.44 1601.21 1316.49 C 1599.57 1310.14 1600.31 1303.23 1603.88 1297.64 C 1607.75 1291.58 1615.02 1287.75 1621.93 1286.46 C 1638.51 1285.95 1701.67 1283.06 1713.82 1288.49 C 1720.06 1291.28 1725.35 1296.17 1727.57 1302.75 C 1729.66 1308.91 1729.04 1316.75 1726.17 1322.57 C 1722.32 1330.37 1715.03 1334.52 1707.04 1337.01 C 1686.46 1337.78 1631.98 1339.01 1614.3 1335.54 z"/>
<path transform="translate(0,0)" fill="rgb(254,254,254)" d="M 1535.6 1418.77 C 1524.16 1420.39 1512.73 1415.73 1505.68 1406.58 C 1498.63 1397.42 1497.05 1385.18 1501.55 1374.54 C 1506.04 1363.89 1515.91 1356.49 1527.39 1355.15 C 1544.83 1353.12 1560.66 1365.5 1562.91 1382.91 C 1565.15 1400.32 1552.98 1416.31 1535.6 1418.77 z"/>
<path transform="translate(0,0)" fill="rgb(244,203,185)" d="M 1443.64 1437.48 C 1486.37 1435.94 1529.52 1437.27 1572.29 1437.32 C 1598.38 1437.36 1625.86 1439.42 1651.34 1433.33 C 1649.1 1455.98 1650.88 1479.61 1649.82 1502.46 C 1660 1502.13 1670.24 1501.52 1680.41 1502.12 C 1662.6 1505.17 1622.73 1502.98 1602.67 1502.94 C 1549.69 1503.12 1496.71 1503.02 1443.73 1502.65 L 1443.64 1437.48 z"/>
<path transform="translate(0,0)" fill="rgb(1,2,30)" d="M 965.452 1527.69 C 944.811 1529.14 926.887 1513.62 925.379 1492.98 C 923.871 1472.34 939.348 1454.38 959.98 1452.82 C 980.69 1451.25 998.738 1466.79 1000.25 1487.51 C 1001.77 1508.22 986.17 1526.23 965.452 1527.69 z"/>
<path transform="translate(0,0)" fill="rgb(1,2,30)" d="M 1421.21 1687.66 C 1420.9 1687.69 1420.6 1687.75 1420.29 1687.77 C 1417.55 1687.92 1414.74 1687.24 1412.88 1685.1 C 1411.25 1683.24 1411.07 1680.95 1410.89 1678.58 C 1409.27 1657.96 1410.54 1636.12 1410.35 1615.38 C 1410.05 1582.13 1408.79 1548.36 1409.94 1515.15 C 1410.16 1508.68 1411.5 1507.01 1416.16 1502.71 C 1419.28 1503.24 1422.11 1504.38 1424.23 1506.8 C 1426.27 1509.12 1426.91 1511.34 1427.22 1514.34 C 1429.3 1534.24 1427.31 1555.82 1427.2 1575.95 C 1427.02 1609.04 1427.85 1642.29 1426.95 1675.35 C 1426.79 1681.52 1425.67 1683.44 1421.21 1687.66 z"/>
<path transform="translate(0,0)" fill="rgb(1,2,30)" d="M 969.532 1661.96 C 949.183 1665.6 929.75 1652.01 926.194 1631.64 C 922.639 1611.28 936.315 1591.91 956.694 1588.44 C 976.95 1584.99 996.181 1598.57 999.715 1618.81 C 1003.25 1639.05 989.757 1658.34 969.532 1661.96 z"/>
<path transform="translate(0,0)" fill="rgb(1,2,30)" d="M 969.504 1790.25 C 949.274 1793.9 929.887 1780.55 926.079 1760.35 C 922.27 1740.15 935.466 1720.65 955.637 1716.69 C 976.034 1712.67 995.793 1726.05 999.644 1746.48 C 1003.49 1766.91 989.962 1786.56 969.504 1790.25 z"/>
</svg>