<svg version="1.1" xmlns="http://www.w3.org/2000/svg" style="display: block;" viewBox="0 0 2048 2048" width="1024" height="1024">
<path transform="translate(0,0)" fill="rgb(248,231,192)" d="M 0 0 L 2048 0 L 2048 2048 L 0 2048 L 0 0 z"/>
<path transform="translate(0,0)" fill="rgb(83,5,1)" d="M 262.129 1881.22 C 268.956 1880.39 274.552 1880.37 280.868 1883.43 A 27.6081 27.6081 0 0 1 295.363 1900.44 C 297.378 1907.14 296.761 1914.61 293.269 1920.72 C 289.052 1928.1 282.545 1931.49 274.663 1933.82 C 269.231 1934.71 264.248 1934.81 258.97 1933 C 252.302 1930.71 246.777 1926.02 243.699 1919.65 A 25.8017 25.8017 0 0 1 242.637 1899.47 C 246.159 1889.94 253.298 1885.16 262.129 1881.22 z"/>
<path transform="translate(0,0)" fill="rgb(248,231,192)" d="M 265.247 1888.07 C 268.656 1887.9 272.261 1888.08 275.481 1889.28 A 20.854 20.854 0 0 1 287.776 1901.24 C 289.647 1906.13 289.359 1911.38 287.041 1916.05 C 284.039 1922.11 278.764 1924.85 272.667 1927.03 C 269.033 1927.5 265.438 1927.63 261.962 1926.3 C 256.974 1924.39 252.877 1920.71 250.747 1915.79 A 19.2473 19.2473 0 0 1 250.634 1900.61 C 253.439 1893.84 258.72 1890.7 265.247 1888.07 z"/>
<path transform="translate(0,0)" fill="rgb(83,5,1)" d="M 266.763 115.231 C 272.365 115.361 277.781 116.337 282.716 119.126 A 25.691 25.691 0 0 1 295.064 135.543 C 296.864 142.849 295.782 150.897 291.688 157.259 C 286.687 165.031 279.26 167.831 270.574 169.59 C 264.397 169.544 259.216 168.897 253.768 165.776 A 25.319 25.319 0 0 1 241.767 149.978 A 27.5188 27.5188 0 0 1 245.505 128.173 C 250.666 120.307 257.769 116.925 266.763 115.231 z"/>
<path transform="translate(0,0)" fill="rgb(248,231,192)" d="M 262.947 123.106 C 266.507 123.027 270.24 122.858 273.685 123.89 C 279.191 125.539 284.106 129.511 286.611 134.714 A 18.5199 18.5199 0 0 1 287.201 149.502 C 284.583 156.092 280.04 158.961 273.869 161.84 C 269.925 162.178 265.481 162.278 261.722 160.905 A 20.0772 20.0772 0 0 1 250.326 150.346 A 19.1216 19.1216 0 0 1 250.05 135.572 C 252.55 129.4 257.072 125.828 262.947 123.106 z"/>
<path transform="translate(0,0)" fill="rgb(83,5,1)" d="M 137.553 1755.16 C 142.725 1754.75 147.207 1754.79 152.11 1756.7 C 159.403 1759.54 165.311 1765.11 168.255 1772.4 A 26.8249 26.8249 0 0 1 167.49 1794.21 C 163.464 1802.39 156.458 1806.38 148.053 1808.97 C 142.002 1809.36 136.629 1809.6 130.93 1807.12 C 123.989 1804.11 118.568 1798.53 116.124 1791.33 A 27.1331 27.1331 0 0 1 117.546 1770.69 C 121.8 1762.13 128.796 1758.05 137.553 1755.16 z"/>
<path transform="translate(0,0)" fill="rgb(248,231,192)" d="M 137.998 1762.15 C 140.828 1762.17 143.823 1762.18 146.58 1762.86 C 152.338 1764.28 157.492 1768.12 160.274 1773.39 A 18.781 18.781 0 0 1 161.465 1788.39 C 158.981 1795.57 153.591 1799 146.989 1801.98 C 143.371 1802.29 139.749 1802.52 136.237 1801.37 A 20.5966 20.5966 0 0 1 124.167 1790.82 A 19.8435 19.8435 0 0 1 123.689 1774.73 C 126.378 1768.21 131.613 1764.57 137.998 1762.15 z"/>
<path transform="translate(0,0)" fill="rgb(83,5,1)" d="M 1775.76 115.208 C 1781.75 115.196 1787.22 115.673 1792.55 118.667 A 27.1723 27.1723 0 0 1 1805.7 136.482 A 27.6953 27.6953 0 0 1 1801.68 158.377 C 1796.84 165.391 1790.48 168.171 1782.38 169.852 C 1776.59 169.976 1770.98 169.519 1765.71 166.91 C 1759.23 163.695 1754.33 158.171 1752.11 151.255 A 27.0808 27.0808 0 0 1 1754.52 129.596 C 1759.39 121.221 1766.8 117.63 1775.76 115.208 z"/>
<path transform="translate(0,0)" fill="rgb(248,231,192)" d="M 1774.21 123.016 C 1777.34 122.957 1780.61 122.783 1783.64 123.696 C 1789.24 125.378 1794.18 129.414 1796.72 134.692 A 18.9524 18.9524 0 0 1 1797.42 149.715 C 1794.92 156.314 1790.2 159.158 1784.03 161.907 C 1780.13 162.28 1775.68 162.604 1771.93 161.328 C 1767.18 159.711 1762.91 155.947 1760.7 151.444 A 19.5719 19.5719 0 0 1 1760.25 135.292 C 1763.02 128.658 1767.89 125.789 1774.21 123.016 z"/>
<path transform="translate(0,0)" fill="rgb(106,18,8)" d="M 1900.02 240.281 C 1906.87 239.357 1912.72 239.463 1919.1 242.48 A 28.2085 28.2085 0 0 1 1933.77 258.708 A 26.8831 26.8831 0 0 1 1932.42 279.084 C 1928.44 287.158 1921.8 291.228 1913.5 293.889 C 1907.84 294.908 1902.95 294.749 1897.49 292.759 A 27.5297 27.5297 0 0 1 1881.52 277.529 C 1878.75 271.076 1878.38 263.662 1881.15 257.14 C 1884.91 248.278 1891.58 243.96 1900.02 240.281 z"/>
<path transform="translate(0,0)" fill="rgb(248,231,192)" d="M 1904.69 247.055 C 1907.98 246.936 1911.2 247.284 1914.26 248.552 C 1919.69 250.8 1923.95 254.922 1925.86 260.522 A 19.8189 19.8189 0 0 1 1924.8 275.804 C 1921.63 282.188 1916.5 285.003 1909.96 287.088 C 1906.42 287.115 1902.97 286.754 1899.68 285.357 C 1894.45 283.131 1890.16 279.239 1888.09 273.88 A 18.5264 18.5264 0 0 1 1888.67 258.946 C 1892.02 252.006 1897.7 249.378 1904.69 247.055 z"/>
<path transform="translate(0,0)" fill="rgb(83,5,1)" d="M 1774.86 1880.16 C 1781.14 1879.97 1786.33 1880.57 1791.9 1883.65 A 27.018 27.018 0 0 1 1804.8 1899.97 A 26.9629 26.9629 0 0 1 1801.73 1921.74 C 1796.87 1929.57 1789.89 1932.85 1781.24 1934.92 C 1774.72 1935.16 1769.53 1934.64 1763.78 1931.33 A 27.6982 27.6982 0 0 1 1750.54 1913.39 A 26.3689 26.3689 0 0 1 1754.21 1893.25 C 1759.09 1885.66 1766.33 1882.13 1774.86 1880.16 z"/>
<path transform="translate(0,0)" fill="rgb(248,231,192)" d="M 1775.39 1887.17 C 1778.36 1887.27 1781.51 1887.48 1784.34 1888.44 C 1789.39 1890.18 1793.79 1894 1796.04 1898.86 A 19.4972 19.4972 0 0 1 1796.2 1914.95 C 1793.22 1921.84 1787.77 1925.14 1781.02 1927.76 C 1777.42 1927.87 1773.64 1927.71 1770.26 1926.3 A 20.6943 20.6943 0 0 1 1758.84 1914.1 A 20.0555 20.0555 0 0 1 1759.84 1898.51 C 1763.21 1891.77 1768.47 1889.26 1775.39 1887.17 z"/>
<path transform="translate(0,0)" fill="rgb(83,5,1)" d="M 137.872 239.267 C 143.058 239.335 148.19 240.268 152.904 242.507 C 159.651 245.712 164.929 251.436 167.248 258.572 A 26.0868 26.0868 0 0 1 165.495 279.032 C 160.855 287.771 153.638 291.576 144.459 294.133 C 137.691 294.181 132.306 293.833 126.247 290.32 A 27.7964 27.7964 0 0 1 112.916 272.427 A 26.734 26.734 0 0 1 116.505 252.322 C 121.677 244.342 128.876 241.148 137.872 239.267 z"/>
<path transform="translate(0,0)" fill="rgb(248,231,192)" d="M 136.31 247.054 C 139.556 246.92 143.037 246.969 146.182 247.876 C 151.752 249.483 156.549 253.232 159.106 258.474 A 18.4274 18.4274 0 0 1 159.742 273.397 C 157.065 280.388 151.772 283.912 145.128 286.673 C 141.25 286.992 137.103 287.103 133.409 285.716 A 20.8266 20.8266 0 0 1 121.257 273.8 A 18.9507 18.9507 0 0 1 121.949 258.656 C 124.994 252.346 130.011 249.461 136.31 247.054 z"/>
<path transform="translate(0,0)" fill="rgb(83,5,1)" d="M 1899.26 1755.13 C 1905.51 1754.51 1911.1 1754.6 1916.88 1757.29 A 28.1775 28.1775 0 0 1 1931.88 1774.1 A 27.7345 27.7345 0 0 1 1929.91 1796.02 C 1925.62 1803.81 1919.1 1807.56 1910.82 1809.94 C 1905.6 1810.42 1900.92 1810.46 1895.87 1808.82 C 1888.65 1806.48 1882.67 1801.56 1879.41 1794.65 A 26.624 26.624 0 0 1 1879 1772.88 C 1882.93 1763.52 1890.18 1758.76 1899.26 1755.13 z"/>
<path transform="translate(0,0)" fill="rgb(248,231,192)" d="M 1902.41 1762.12 C 1906.01 1762.02 1910.04 1762.37 1913.37 1763.84 A 21.0692 21.0692 0 0 1 1924.6 1776.19 A 20.3657 20.3657 0 0 1 1923.46 1792.15 C 1920.34 1798.17 1915.21 1800.91 1909.04 1803.07 C 1904.66 1803.25 1900.36 1803.24 1896.3 1801.35 A 20.3394 20.3394 0 0 1 1885.65 1789.77 A 20.1515 20.1515 0 0 1 1886.62 1773.97 C 1889.95 1767.32 1895.55 1764.19 1902.41 1762.12 z"/>
<path transform="translate(0,0)" fill="rgb(106,18,8)" d="M 153.536 119.213 C 164.278 118.572 174.648 121.028 183.614 127.125 A 44.6488 44.6488 0 0 1 202.463 155.884 A 45.339 45.339 0 0 1 195.144 189.95 C 187.186 201.559 176.254 206.246 162.997 208.959 C 152.037 209.233 142.531 208.163 132.951 202.184 A 44.5263 44.5263 0 0 1 113.073 174.344 C 110.315 162.254 113.13 149.37 120.047 139.155 C 128.157 127.178 139.721 121.689 153.536 119.213 z"/>
<path transform="translate(0,0)" fill="rgb(248,231,192)" d="M 150.693 127.119 C 159.565 126.582 167.577 127.13 175.583 131.376 A 37.6223 37.6223 0 0 1 194.244 154.571 A 37.5206 37.5206 0 0 1 190.377 183.044 C 184.301 193.318 175.117 197.743 164.106 200.808 C 155.74 201.437 147.865 200.867 140.206 197.119 A 35.6939 35.6939 0 0 1 121.736 176.011 A 36.9472 36.9472 0 0 1 124.278 147.478 C 129.994 136.662 139.406 130.817 150.693 127.119 z"/>
<path transform="translate(0,0)" fill="rgb(106,18,8)" d="M 157.589 1841.35 C 167.528 1841.42 177.217 1843.97 185.542 1849.52 C 195.372 1856.07 202.016 1865.8 204.304 1877.42 C 206.69 1889.54 204.582 1902.06 197.411 1912.23 C 189.435 1923.53 178.267 1928.73 165.047 1931.11 C 153.187 1931.37 143.071 1930.11 132.992 1923.07 A 44.4876 44.4876 0 0 1 114.805 1894.12 C 112.721 1881.87 115.391 1868.94 122.968 1858.99 C 131.636 1847.62 143.849 1842.97 157.589 1841.35 z"/>
<path transform="translate(0,0)" fill="rgb(248,231,192)" d="M 153.961 1849.13 C 162.208 1848.66 169.966 1849.77 177.359 1853.66 C 186.063 1858.25 192.873 1866.01 195.669 1875.51 C 198.628 1885.56 197.544 1896.74 192.12 1905.78 C 186.112 1915.78 176.955 1920.57 166.065 1923.49 C 157.24 1924.37 148.964 1923.76 141.024 1919.38 C 132.456 1914.65 126.396 1906.54 123.69 1897.2 C 120.826 1887.31 121.625 1876.14 126.851 1867.15 C 132.845 1856.85 142.824 1851.92 153.961 1849.13 z"/>
<path transform="translate(0,0)" fill="rgb(106,18,8)" d="M 1886.81 119.345 C 1895.97 118.658 1906.09 121.366 1913.9 126.148 A 44.4867 44.4867 0 0 1 1934.26 155.672 C 1936.7 167.899 1934.13 181.206 1926.84 191.379 C 1918.24 203.375 1906.37 207.922 1892.34 209.96 C 1881.58 209.426 1871.79 207.427 1862.67 201.302 C 1852.91 194.756 1845.93 184.862 1843.7 173.266 C 1841.39 161.221 1844.7 148.43 1851.93 138.609 C 1860.53 126.927 1872.79 121.301 1886.81 119.345 z"/>
<path transform="translate(0,0)" fill="rgb(248,231,192)" d="M 1884.02 127.11 C 1892.76 126.706 1900.28 127.239 1908.16 131.573 A 37.0837 37.0837 0 0 1 1926.19 154.87 C 1928.72 164.874 1927.19 175.991 1921.7 184.766 C 1915.33 194.928 1905.84 199.526 1894.54 201.996 C 1886.5 202.333 1879.24 201.447 1871.93 197.843 C 1862.58 193.229 1855.45 185.152 1852.43 175.133 A 36.7315 36.7315 0 0 1 1856.2 145.913 C 1862.55 135.276 1872.43 130.103 1884.02 127.11 z"/>
<path transform="translate(0,0)" fill="rgb(106,18,8)" d="M 1882.28 1841.14 C 1892.29 1840.75 1901.48 1841.76 1910.51 1846.57 A 45.5142 45.5142 0 0 1 1933.2 1875.16 A 46.1274 46.1274 0 0 1 1927.53 1911.4 C 1919.8 1923.76 1908.11 1929.59 1894.32 1932.63 C 1883.95 1933.43 1874.04 1931.82 1864.87 1926.64 A 46.3779 46.3779 0 0 1 1842.72 1897.76 C 1839.59 1885.72 1842 1872.87 1848.63 1862.42 C 1856.55 1849.95 1868.4 1844.3 1882.28 1841.14 z"/>
<path transform="translate(0,0)" fill="rgb(248,231,192)" d="M 1884.68 1848.35 C 1892.55 1848.15 1900.13 1849.48 1907.07 1853.32 A 39.1604 39.1604 0 0 1 1925.71 1877.62 A 36.2485 36.2485 0 0 1 1921.7 1905.85 C 1915.09 1916.87 1905.33 1921.98 1893.33 1925.13 C 1884.01 1925.32 1875.88 1924.39 1867.72 1919.47 A 37.5324 37.5324 0 0 1 1850.24 1894.77 A 38.5676 38.5676 0 0 1 1856.51 1864.94 C 1863.28 1855.42 1873.38 1850.3 1884.68 1848.35 z"/>
<path transform="translate(0,0)" fill="rgb(106,18,8)" d="M 357.995 136.962 C 404.162 135.876 450.565 136.752 496.751 136.795 L 760.611 137.008 L 1423.43 136.932 L 1602.46 136.964 C 1619.55 136.981 1636.66 137.337 1653.74 137.247 C 1661.44 137.207 1669.22 136.319 1676.9 136.594 C 1680.23 136.714 1683.15 137.11 1686.25 138.348 C 1688.35 140.988 1687.85 141.598 1687.68 144.86 C 1675.59 145.968 1662.9 145.112 1650.73 145.079 L 1581.29 144.912 L 1362.14 144.819 L 628.736 144.668 L 444.412 144.788 L 385.296 144.664 C 379.282 144.685 373.181 145.669 367.207 145.428 C 364.178 145.306 361.977 144.944 359.256 143.608 C 357.444 140.983 357.874 140.075 357.995 136.962 z"/>
<path transform="translate(0,0)" fill="rgb(106,18,8)" d="M 360.798 1905.37 C 458.963 1906.42 557.227 1905.32 655.402 1905.36 L 1315.99 1905.38 L 1564.28 1905.48 C 1602.78 1905.47 1641.77 1903.86 1680.21 1905.13 C 1683.24 1905.23 1685.96 1905.23 1688.45 1907.13 C 1689.04 1909.82 1688.04 1910.61 1686.83 1912.96 C 1658.03 1914.1 1628.82 1913.35 1599.98 1913.35 L 1430.7 1913.19 L 870.656 1913.44 L 519.818 1913.61 L 412.457 1913.45 C 396.469 1913.42 378.778 1914.88 362.949 1913.2 C 360.367 1912.92 359.375 1912.01 357.772 1910.11 C 358.24 1907.25 358.567 1907.3 360.798 1905.37 z"/>
<path transform="translate(0,0)" fill="rgb(106,18,8)" d="M 139.657 335.635 C 140.447 335.952 141.822 336.468 142.507 336.915 C 144.175 338.003 144.5 338.616 144.806 340.519 C 145.932 347.508 145.024 355.698 144.973 362.834 L 144.658 412.138 L 144.162 584.321 L 144.246 1236.42 L 144.211 1550.71 L 144.093 1649.04 C 144.133 1666.58 145.208 1684.63 144.09 1702.1 C 143.898 1705.09 143.509 1706.68 141.771 1709.11 C 140.863 1708.87 138.867 1708.51 138.006 1707.96 C 135.994 1706.67 136.238 1705.57 136.077 1703.4 C 134.905 1687.7 135.932 1671.25 135.987 1655.49 L 136.105 1561.63 L 136.351 1248.14 L 136.713 351.759 C 136.74 346.176 135.811 340.099 139.657 335.635 z"/>
<path transform="translate(0,0)" fill="rgb(106,18,8)" d="M 1906.58 336.32 C 1908.7 336.612 1910.21 337.04 1912.15 337.958 C 1915.94 344.555 1913.61 668.227 1913.39 706.23 L 1913.12 1435.78 C 1913.06 1491.68 1912.68 1547.61 1913.32 1603.5 A 6246.48 6246.48 0 0 1 1913.79 1669.53 C 1913.83 1682.05 1914.82 1695.55 1912.83 1707.91 C 1911.98 1708.11 1910.6 1708.49 1909.75 1708.45 C 1908.59 1708.41 1906.81 1707.99 1906.17 1706.92 C 1903.55 1702.51 1905.07 1383.36 1905.07 1340.99 L 1905.04 630.663 L 1905.16 427.17 L 1905.38 370.916 C 1905.44 359.578 1904.74 347.516 1906.58 336.32 z"/>
<path transform="translate(0,0)" fill="rgb(106,18,8)" d="M 300.57 193.502 L 1752.98 193.401 C 1764.01 240.585 1786.26 274.31 1835.11 287.982 C 1841.07 289.648 1848.04 288.314 1852.24 293.309 C 1854.18 305.039 1853.02 318.211 1852.96 330.096 L 1852.72 396.16 L 1852.3 664.859 L 1852.07 1457.22 L 1852.01 1670.55 L 1851.99 1724.24 C 1851.98 1734.14 1853.06 1745.72 1851.11 1755.43 C 1850.57 1758.12 1849.94 1758.93 1847.46 1760.2 C 1843.89 1762.04 1837.65 1761.98 1833.54 1762.91 C 1820.46 1765.87 1807.49 1772.37 1796.85 1780.46 C 1771.7 1799.56 1760.59 1825.49 1756.25 1855.96 C 1739.87 1856.95 1723.14 1856.25 1706.7 1856.26 L 1619.85 1856.33 L 1354.92 1856.1 L 641.413 1856.27 L 429.291 1856.35 C 384.972 1856.36 340.568 1855.89 296.262 1856.92 C 292.118 1846.34 290.109 1835.22 285.395 1824.72 C 273.651 1798.57 250.222 1776.73 223.382 1766.64 C 214.829 1763.42 205.671 1762.33 197.141 1759.06 C 196.831 1758.94 196.524 1758.81 196.216 1758.69 C 195.135 1738.85 195.908 1718.64 195.943 1698.76 L 196.034 1592.59 L 195.928 1267.61 L 196.025 290.282 C 214.182 286.039 229.159 283.316 245.07 272.701 A 114.095 114.095 0 0 0 293.009 201.356 L 294.148 195.592 C 296.422 193.617 297.634 193.848 300.57 193.502 z"/>
<path transform="translate(0,0)" fill="rgb(221,173,151)" d="M 301.272 201.177 L 1746.45 200.994 C 1750.3 216.53 1754.93 230.85 1763.69 244.388 C 1783.29 274.652 1810.2 289.888 1844.84 297.202 L 1843.84 1752.52 C 1834.04 1754.8 1824.35 1757.26 1815.07 1761.21 C 1786.25 1773.44 1765.27 1796.12 1754.96 1825.57 C 1752.45 1832.72 1751.79 1841 1749.04 1847.79 L 1746.25 1848.15 L 301.321 1848.6 C 298.279 1835.12 293.933 1822.22 286.775 1810.34 C 267.869 1778.95 238.765 1761.42 204.02 1752.65 L 204.7 296.5 C 218.982 293.61 232.451 289.455 245.126 282.115 C 276.308 264.06 292.237 234.96 301.272 201.177 z"/>
<path transform="translate(0,0)" fill="rgb(253,250,236)" d="M 347.874 241.885 C 393.244 240.721 438.884 241.505 484.279 241.437 L 759.762 241.353 L 930.551 241.557 C 957.119 241.724 984.941 240.114 1011.31 242.699 C 1012.69 265.129 1011.74 288.229 1011.79 310.732 L 1011.87 437.975 L 1011.36 827.553 L 1011.1 983.251 C 1011.07 998.736 1012.97 1035.52 1010.01 1047.92 C 1016.08 1047.05 1023.15 1047.73 1029.32 1047.75 C 1044.19 1047.8 1059.09 1048.18 1073.94 1047.06 C 1070.75 1034.57 1072.8 996.217 1072.81 980.992 L 1072.89 828.226 L 1073.01 447.419 L 1072.98 313.069 C 1072.99 289.518 1072.37 265.757 1073.2 242.226 C 1122.93 240.023 1173.23 241.517 1223.04 241.507 L 1490.42 241.533 L 1633.42 241.533 C 1654.47 241.516 1681.52 239.354 1701.89 242.138 C 1716.25 283.981 1735.54 310.942 1776.05 330.871 C 1782.94 334.258 1790.23 337.08 1796.97 340.718 L 1796.83 1705.55 C 1789.14 1713.1 1777.66 1716.67 1768.1 1721.42 C 1751.36 1729.75 1735.99 1745.23 1724.74 1759.92 C 1720.93 1764.89 1717.24 1770.16 1714.3 1775.71 C 1710.59 1782.74 1705.93 1802.53 1699.08 1805.85 C 1693.9 1808.35 1392.13 1807.24 1354.97 1806.79 A 98.0143 98.0143 0 0 1 1348.33 1806.43 C 1347.24 1766.54 1348.02 1726.46 1348 1686.55 L 1347.97 1467.87 L 1348.01 1230.74 C 1348.01 1195.87 1346.98 1160.76 1347.71 1125.92 C 1347.79 1122.24 1347.69 1118.41 1349.61 1115.15 L 1352.74 1113.58 C 1351.12 1110.81 1350.99 1109.51 1347.58 1108.73 C 1341.1 1107.26 1286.41 1107.2 1282.79 1109.66 C 1280.52 1111.2 1279.05 1116.07 1278.93 1118.65 C 1280.45 1119.48 1281.79 1120.09 1282.93 1121.44 C 1284.71 1123.55 1283.51 1240.73 1283.49 1256.4 L 1283.2 1625.41 L 1283.31 1737.64 C 1283.35 1760.53 1283.88 1783.52 1282.97 1806.39 C 1262.79 1807.55 1242.11 1806.68 1221.89 1806.69 L 1109.2 1806.72 L 765.251 1806.85 L 486.967 1806.68 L 400.254 1806.83 C 383.054 1806.86 365.363 1807.66 348.224 1806.3 C 343.883 1797.77 340.981 1788.7 336.352 1780.26 C 317.057 1745.09 287.341 1726.15 251.99 1709.65 L 251.988 856.462 L 252.023 521.031 A 13680.4 13680.4 0 0 1 252.859 338.068 C 260.332 335.891 267.688 333.505 274.767 330.236 C 314.852 311.724 333.16 281.613 347.874 241.885 z"/>
<path transform="translate(0,0)" fill="rgb(83,5,1)" d="M 630.997 740.391 C 631.437 740.458 631.881 740.505 632.318 740.591 C 635.53 741.227 636.826 742.177 638.494 744.821 C 638.142 748.249 637.414 749.004 635.486 751.758 C 633.419 751.978 631.931 752.343 629.974 751.469 C 628.554 750.835 628.538 749.941 627.935 748.621 C 628.137 745.241 629.351 743.23 630.997 740.391 z"/>
<path transform="translate(0,0)" fill="rgb(83,5,1)" d="M 974.575 1210.65 C 975.967 1210.68 977.649 1210.61 979.033 1210.93 C 981.671 1211.53 982.558 1212.66 983.92 1214.84 C 983.793 1218.18 982.944 1219.58 981.084 1222.17 C 980.047 1222.18 978.454 1222.24 977.47 1222.04 C 974.696 1221.47 973.969 1220.6 972.415 1218.49 C 972.104 1215.15 973.062 1213.47 974.575 1210.65 z"/>
<path transform="translate(0,0)" fill="rgb(83,5,1)" d="M 629.108 758.298 C 629.597 758.401 630.861 758.64 631.262 758.855 C 632.743 759.651 632.977 759.749 633.348 761.135 C 635.322 768.519 628.436 801.024 624.791 808.074 C 623.098 807.596 621.692 807.226 620.198 806.252 C 619.126 805.553 619.21 805.773 619.055 804.499 C 618.062 796.323 624.389 764.645 629.108 758.298 z"/>
<path transform="translate(0,0)" fill="rgb(83,5,1)" d="M 971.537 1232.68 C 973.954 1232.84 975.793 1233.17 978.077 1233.98 C 980.309 1239.03 970.504 1278.68 968.189 1285.73 C 965.881 1285.23 964.454 1284.71 962.497 1283.38 C 959.905 1278.42 969.425 1239.91 971.537 1232.68 z"/>
<path transform="translate(0,0)" fill="rgb(83,5,1)" d="M 1555.57 767.275 C 1557.3 759.921 1558.04 747.331 1565.2 743.205 C 1565.46 743.057 1565.75 742.999 1566.03 742.896 L 1568.56 745.127 C 1568.87 751.479 1555.86 806.331 1552.95 810.699 L 1551.12 811.714 C 1548.89 810.686 1548.8 810.467 1547.53 808.344 L 1547.64 803.868 C 1549.69 801.049 1549.53 799.098 1549.47 795.788 C 1551.89 787.179 1553.23 778.221 1555.15 769.479 L 1555.57 767.275 z"/>
<path transform="translate(0,0)" fill="rgb(83,5,1)" d="M 1388.76 761.306 C 1391.33 761.449 1393.1 761.927 1395.48 762.782 C 1397.27 766.32 1393.87 767.179 1395.53 770.811 C 1397.73 768.36 1399.94 765.966 1402.56 763.946 C 1405.37 761.781 1408.79 759.811 1412.49 760.801 C 1414.69 761.391 1415.87 762.885 1417.15 764.628 C 1415.53 770.227 1407.21 768.738 1402.98 771.484 C 1399.38 773.82 1396.47 778.425 1394.02 781.888 C 1389.84 789.41 1390 801.949 1384.36 807.941 C 1383 809.391 1382.1 808.912 1380.22 808.975 L 1378.91 807.518 C 1380.13 792.364 1384.26 775.842 1388.76 761.306 z"/>
<path transform="translate(0,0)" fill="rgb(83,5,1)" d="M 1547.64 803.868 C 1542.61 807.493 1537.19 811.499 1530.62 810.37 C 1527.27 809.796 1524.49 807.779 1522.57 805.032 C 1518.99 799.932 1518.48 793.265 1519.54 787.291 C 1521.04 778.901 1525.68 770.291 1532.79 765.39 C 1537.03 762.476 1542.86 760.271 1548.04 761.358 C 1551.89 762.164 1553.55 764.054 1555.57 767.275 L 1555.15 769.479 C 1550.15 767.684 1546.05 766.838 1541.04 769.188 C 1534.56 772.226 1530.21 778.583 1528.03 785.23 C 1526.66 789.438 1525.57 795.415 1527.75 799.543 C 1528.85 801.628 1529.82 802.052 1531.78 803.204 C 1539.36 803.846 1543.25 798.964 1549.47 795.788 C 1549.53 799.098 1549.69 801.049 1547.64 803.868 z"/>
<path transform="translate(0,0)" fill="rgb(83,5,1)" d="M 589.631 771.125 C 593.284 766.48 597.619 761.849 603.1 759.379 C 605.396 758.345 608.162 758.046 610.448 759.307 C 612.742 760.573 613.838 762.393 614.803 764.714 C 611.664 772.138 601.325 763.859 591.939 776.581 L 590.999 777.865 C 587.458 785.768 586.951 794.378 583.297 802.137 C 582.183 804.501 581.467 806.244 579.011 807.186 C 578.787 806.953 578.526 806.751 578.338 806.488 C 573.522 799.75 581.677 767.437 583.886 758.717 C 586.357 758.679 587.824 758.694 590.055 759.807 C 591.489 763.492 590.229 767.256 589.631 771.125 z"/>
<path transform="translate(0,0)" fill="rgb(83,5,1)" d="M 935.657 1251.03 C 930.084 1260.91 928.994 1277.62 926.243 1281.88 C 924.921 1283.93 923.685 1284.41 921.404 1284.94 C 920.445 1284.47 920.34 1284.63 919.887 1283.75 C 917.636 1279.4 919.654 1271.16 920.583 1266.5 C 921.975 1259.51 925.596 1233.98 930.255 1230.87 C 932.184 1231.79 932.775 1232.18 933.956 1234.08 C 935.851 1237.11 934.659 1240.23 933.851 1243.42 L 933.511 1244.72 C 937.609 1239.98 944.17 1231.62 950.918 1231.36 C 953.061 1231.27 954.995 1231.91 956.546 1233.44 C 958.65 1235.52 958.933 1237.2 958.981 1240.01 C 956.907 1241.71 955.674 1241.57 953.028 1241.36 C 952.07 1241.28 951.123 1241.11 950.17 1240.99 C 947.481 1240.66 945.918 1240.65 943.665 1242.38 C 940.637 1244.71 938.114 1248.11 935.657 1251.03 z"/>
<path transform="translate(0,0)" fill="rgb(253,250,236)" d="M 1549.47 795.788 C 1543.25 798.964 1539.36 803.846 1531.78 803.204 C 1529.82 802.052 1528.85 801.628 1527.75 799.543 C 1525.57 795.415 1526.66 789.438 1528.03 785.23 C 1530.21 778.583 1534.56 772.226 1541.04 769.188 C 1546.05 766.838 1550.15 767.684 1555.15 769.479 C 1553.23 778.221 1551.89 787.179 1549.47 795.788 z"/>
<path transform="translate(0,0)" fill="rgb(83,5,1)" d="M 551.914 745.16 C 554.274 745.68 555.431 746.086 557.25 747.696 C 558.565 751.59 556.918 756.066 556.04 759.964 C 559.942 759.676 564.908 758.674 568.558 760.356 C 570.43 761.218 569.832 760.809 570.479 762.93 C 570.246 763.206 570.039 763.505 569.781 763.756 C 565.942 767.49 559.476 766.511 554.537 766.428 C 552.23 775.967 547.834 788.313 548.975 798.032 C 553.278 802.62 559.158 796.614 565.097 798.993 C 565.042 799.43 565.015 799.871 564.931 800.302 C 564.431 802.884 563.332 803.899 561.067 805.147 C 556.893 807.448 550.181 808.045 545.724 806.346 C 530.958 800.718 549.587 777.837 544.677 767.693 C 542.809 767.669 541.617 767.446 539.884 766.746 C 539.343 764.13 539.758 763.827 540.917 761.366 C 542.453 761.063 544.016 760.806 545.357 759.929 C 549.904 756.956 550.716 750.058 551.914 745.16 z"/>
<path transform="translate(0,0)" fill="rgb(83,5,1)" d="M 516.863 758.364 C 521.347 758.41 523.738 758.498 527.182 761.661 C 528.04 764.201 528.352 764.228 527.27 766.631 C 522.193 768.392 518.214 764.797 513.353 765.601 C 509.803 766.189 506.984 767.933 505.029 770.83 C 506.432 777.787 516.633 780.212 521.93 784.225 C 524.177 785.927 526.385 788.445 526.502 791.39 C 526.686 795.991 521.816 800.53 518.573 803.214 C 512.524 808.221 506.601 808.205 499.036 807.441 C 494.902 805.535 491.687 804.113 488.548 800.673 L 488.948 797.9 C 495.513 797.572 502.176 800.751 508.934 800.289 C 511.882 800.088 514.705 798.998 516.242 796.29 C 521.693 786.687 497.674 783.515 495.955 774.373 C 495.356 771.187 497.156 768.257 499.025 765.85 C 503.583 759.98 510.012 759.269 516.863 758.364 z"/>
<path transform="translate(0,0)" fill="rgb(83,5,1)" d="M 711.337 758.237 C 715.203 758.221 720.543 757.997 724 759.988 C 726.218 761.264 727.792 762.28 728.374 764.774 C 721.399 769.322 710.287 763.64 703.877 769.885 C 704.687 779.158 723.055 780.826 725.397 792.205 C 725.999 795.134 725.464 798.279 723.75 800.756 C 719.88 806.35 712.061 807.224 705.875 808.075 C 702.477 807.533 699.132 806.865 695.885 805.694 C 693.005 804.654 690.376 803.261 689.048 800.388 L 689.763 798.918 C 694.92 796.706 702.295 800.853 708.084 800.846 C 711.377 800.842 713.666 800.252 716.046 797.836 C 719.492 786.188 699.946 786.368 696.359 776.707 C 695.209 773.612 695.312 770.371 696.941 767.467 C 700.007 761.998 705.617 759.789 711.337 758.237 z"/>
<path transform="translate(0,0)" fill="rgb(83,5,1)" d="M 1123.86 1231.26 C 1127.6 1231.17 1131.58 1231.87 1134.78 1233.89 C 1137.62 1235.67 1138.74 1237.11 1139.46 1240.35 L 1138.22 1242.01 C 1133.2 1242.88 1127.16 1240.17 1122.04 1239.68 C 1118.86 1239.38 1117.03 1239.82 1114.62 1241.87 C 1114.02 1243.97 1113.82 1245.25 1114.36 1247.35 C 1115.76 1252.88 1126.37 1255.8 1131.09 1258.64 C 1134.13 1260.46 1137.74 1263.05 1138.19 1266.88 C 1138.55 1270.04 1136.7 1272.87 1134.77 1275.16 C 1128.73 1282.35 1123.79 1283.77 1114.66 1284.73 C 1110.01 1284.09 1102.28 1283.42 1099.6 1278.83 C 1098.3 1276.61 1098.4 1275.75 1098.99 1273.46 C 1105.58 1270.46 1111.2 1278.42 1118.05 1278.26 C 1121.14 1278.19 1123.66 1276.26 1125.62 1274.06 C 1127.59 1271.86 1128.1 1270.26 1127.96 1267.36 C 1124.35 1260.96 1115.3 1260.42 1109.43 1256.91 C 1107.16 1255.56 1105.73 1253.03 1105.25 1250.48 C 1104.53 1246.78 1105.35 1242.63 1107.47 1239.5 C 1111.16 1234.05 1117.83 1232.51 1123.86 1231.26 z"/>
<path transform="translate(0,0)" fill="rgb(83,5,1)" d="M 870.191 465.232 C 870.79 462.268 870.51 461.178 873.339 459.625 C 879.762 456.102 892.395 460.944 898.556 463.917 C 908.696 468.811 917.767 480.395 921.262 490.827 C 924.974 501.909 923.719 513.821 918.279 524.107 A 49.0742 49.0742 0 0 1 888.631 548.163 C 884.533 549.385 877.763 550.888 873.63 549.094 C 872.606 548.65 872.102 548.115 871.315 547.418 C 871.094 545.983 870.818 544.531 870.683 543.086 C 882.084 542.276 892.423 540.901 901.659 533.416 A 38.5356 38.5356 0 0 0 915.828 506.231 A 36.0048 36.0048 0 0 0 906.654 479.664 C 896.55 468.243 884.584 465.947 870.191 465.232 z"/>
<path transform="translate(0,0)" fill="rgb(83,5,1)" d="M 998.697 1231.19 C 1001.98 1231.71 1003.6 1231.65 1006.24 1233.74 C 1007.7 1237.63 1005.66 1242.59 1004.65 1246.49 C 1010.58 1239.67 1016.76 1233.65 1026.05 1231.86 C 1029.37 1231.22 1031.48 1231.64 1034.37 1233.5 C 1036.76 1236.62 1037.15 1239.84 1036.93 1243.69 C 1036.59 1249.48 1031.92 1280.02 1028.18 1283.38 C 1025.54 1283.89 1025.08 1284.07 1022.61 1283.12 C 1019.75 1277.48 1024.1 1266.61 1025.69 1260.59 C 1026.68 1256.39 1027.82 1251.7 1028.09 1247.41 C 1028.28 1244.42 1028.05 1243.3 1026.07 1241.1 C 1022.64 1240.15 1021.11 1240.32 1017.93 1241.96 C 1003.52 1249.38 1002.76 1263.14 998.292 1276.79 C 997.256 1279.97 995.906 1283.38 992.801 1284.98 L 991.175 1283.98 C 990.202 1281.45 989.607 1279.03 989.711 1276.29 C 989.869 1272.08 991.694 1267.82 992.557 1263.71 C 994.817 1252.92 996.658 1242.01 998.697 1231.19 z"/>
<path transform="translate(0,0)" fill="rgb(83,5,1)" d="M 666.331 759.195 C 670.573 758.625 674.655 758.279 678.801 759.621 C 681.681 760.552 684.745 762.121 685.898 765.123 C 687.164 768.419 685.736 772.531 684.121 775.48 C 678.097 786.481 665.761 782.702 656.319 786.2 C 654.506 786.872 652.568 789.617 652.195 791.534 C 651.924 792.927 651.905 794.215 652.668 795.429 C 654.573 798.461 658.361 799.424 661.693 799.986 C 668.388 801.114 672.116 798.867 677.44 795.07 L 679.59 795.971 L 678.879 795.858 L 681.164 797.368 L 681.345 799.158 C 680.249 802 678.962 803.28 676.294 804.635 C 669.949 807.856 660.805 808.255 654.093 806.02 C 650.424 804.798 647.309 802.495 645.692 798.913 C 642.943 792.826 644.077 784.28 646.406 778.234 C 650.224 768.323 657.059 763.384 666.331 759.195 z"/>
<path transform="translate(0,0)" fill="rgb(253,250,236)" d="M 669.344 765.052 C 670.68 765.143 672.265 765.156 673.581 765.506 C 676.049 766.164 676.814 767.012 677.853 769.226 C 677.593 770.507 677.618 770.798 676.894 772.088 C 673.941 777.342 667.621 778.932 662.238 779.858 C 659.975 780.156 658.333 780.36 656.106 779.786 L 655.123 778.102 C 655.338 776.937 655.308 776.759 655.875 775.538 C 658.206 770.521 664.545 767.038 669.344 765.052 z"/>
<path transform="translate(0,0)" fill="rgb(83,5,1)" d="M 1440.61 761.13 C 1444.33 760.891 1448.38 760.477 1452 761.616 C 1455.2 762.623 1459.08 764.931 1460.24 768.266 C 1461.47 771.799 1459.5 775.535 1457.55 778.379 C 1450.99 787.959 1439.61 786.486 1429.59 788.644 C 1427.06 789.188 1425.57 789.552 1424.11 791.774 C 1424.13 794.51 1424.62 796.262 1425.64 798.739 C 1426.3 800.352 1428.35 801.743 1429.99 802.33 C 1438.07 805.22 1445.65 801.749 1452.72 798.143 C 1453.48 797.955 1454.29 798.309 1455.06 798.473 C 1455.61 799.846 1456.08 800.186 1455.57 801.703 C 1454.79 804.012 1453.19 805.46 1451.12 806.603 C 1444.22 810.405 1432.97 810.942 1425.6 808.363 C 1421.54 806.94 1417.6 803.472 1415.99 799.447 C 1413.57 793.37 1415.73 785.708 1418.46 780.107 C 1423.3 770.205 1430.39 764.643 1440.61 761.13 z"/>
<path transform="translate(0,0)" fill="rgb(253,250,236)" d="M 1441.4 768.082 C 1443.18 767.957 1445.1 767.736 1446.88 767.918 C 1449.29 768.167 1450.54 768.925 1452.05 770.718 L 1451.62 773.262 C 1447.35 778.529 1443.94 779.828 1437.48 781.827 C 1433.37 782.537 1429.15 782.739 1425 783.068 C 1429.44 775.164 1432.61 770.924 1441.4 768.082 z"/>
<path transform="translate(0,0)" fill="rgb(83,5,1)" d="M 1062.97 1206.51 C 1066.15 1206.79 1067.92 1206.77 1070.32 1208.9 C 1072.35 1216.66 1062.56 1247.66 1059.87 1256.83 C 1066.26 1251.22 1089.25 1230.54 1096.88 1230.99 C 1096.82 1231.61 1096.83 1232.23 1096.7 1232.84 C 1095.22 1240.05 1080.96 1249.47 1075.18 1253.97 C 1078.2 1260.64 1081.72 1267.13 1085.05 1273.66 C 1086.59 1276.25 1087.78 1278.7 1088.92 1281.49 C 1088.2 1283.66 1088.05 1283.87 1086.27 1285.3 C 1085.89 1285.24 1085.5 1285.21 1085.12 1285.12 C 1078.29 1283.35 1070.57 1264.86 1067.28 1258.58 L 1058.54 1266.27 C 1057.57 1271.09 1057.54 1278.43 1054.75 1282.42 C 1052.39 1283.81 1052.05 1283.9 1049.32 1283.84 L 1047.75 1282.14 C 1048.23 1269.1 1052.35 1255.32 1055.17 1242.58 C 1057.84 1230.57 1060.09 1218.47 1062.97 1206.51 z"/>
<path transform="translate(0,0)" fill="rgb(83,5,1)" d="M 921.495 337.113 C 927.289 336.606 932.612 336.52 938.16 338.548 C 943.694 340.571 949.039 344.421 951.233 350.078 C 952.65 353.73 952.591 357.594 950.876 361.127 C 947.679 367.715 940.81 370.503 934.332 372.816 C 927.811 373.759 921.96 373.972 915.822 371.18 C 910.92 368.951 906.508 365.171 904.666 359.983 C 903.332 356.225 903.441 352.308 905.158 348.701 C 908.341 342.013 914.91 339.375 921.495 337.113 z"/>
<path transform="translate(0,0)" fill="rgb(221,173,151)" d="M 921.029 344.15 C 924.631 343.918 928.247 343.676 931.811 344.407 C 935.827 345.23 941.775 348.226 943.794 351.982 C 944.942 354.117 945.284 355.978 944.282 358.27 C 942.446 362.467 937.983 364.222 934.085 365.961 C 930.774 366.249 927.38 366.625 924.071 366.148 C 919.582 365.502 914.028 362.947 911.575 358.941 A 7.202 7.202 0 0 1 911.109 352.296 C 912.92 348.15 917.244 346.088 921.029 344.15 z"/>
<path transform="translate(0,0)" fill="rgb(83,5,1)" d="M 407.096 741.316 C 410.524 741.119 414.238 740.965 417.655 741.452 C 422.972 742.21 428.316 744.75 431.526 749.174 C 434.942 753.88 434.769 759.445 433.561 764.925 C 429.232 784.564 409.579 777.645 399.416 784.122 L 398.589 788.934 C 397.565 794.304 397.377 801.352 394.171 805.766 C 391.808 806.971 391.373 807.063 388.724 806.916 L 387.44 805.115 C 387.95 793.871 394.783 754.132 398.421 744.219 C 400.867 741.914 403.915 741.826 407.096 741.316 z"/>
<path transform="translate(0,0)" fill="rgb(253,250,236)" d="M 409.007 748.263 C 411.497 748.181 413.987 748.136 416.43 748.712 C 419.438 749.422 422.555 751.706 423.926 754.523 C 425.364 757.475 425.631 760.331 424.645 763.442 C 423.012 768.59 419.546 770.886 415.008 773.372 C 410.333 774.295 405.59 774.783 400.861 775.355 C 402.056 768.116 402.945 760.461 404.934 753.392 C 405.771 750.417 406.347 749.77 409.007 748.263 z"/>
<path transform="translate(0,0)" fill="rgb(83,5,1)" d="M 1685.28 1461.18 C 1691.59 1460.78 1698.58 1462.14 1704.01 1465.47 C 1708.47 1468.2 1712 1472.51 1713.07 1477.7 A 16.3233 16.3233 0 0 1 1710.4 1490.43 C 1705.49 1497.48 1698.2 1499.33 1690.27 1500.89 C 1684.06 1501.14 1677.56 1500.15 1671.99 1497.27 C 1667.24 1494.82 1663.16 1490.82 1661.65 1485.58 A 15.7528 15.7528 0 0 1 1663.51 1472.72 C 1668.36 1465.01 1676.93 1462.8 1685.28 1461.18 z"/>
<path transform="translate(0,0)" fill="rgb(221,173,151)" d="M 1680.12 1469.13 A 53.1201 53.1201 0 0 1 1688.36 1468.93 C 1693.84 1469.23 1701.28 1472.08 1704.63 1476.66 C 1706.16 1478.75 1706.75 1481 1706.15 1483.58 C 1705.07 1488.24 1698.85 1491.04 1695.04 1492.88 C 1691.39 1493.26 1687.56 1493.42 1683.91 1493.1 C 1679.25 1492.69 1672.23 1489.64 1669.64 1485.54 C 1668.3 1483.42 1667.62 1481.4 1668.39 1478.92 C 1670.04 1473.66 1675.57 1471.29 1680.12 1469.13 z"/>
<path transform="translate(0,0)" fill="rgb(83,5,1)" d="M 472.499 758.348 C 476.578 758.094 480.598 758.801 484.637 759.325 C 482.823 769.387 479.841 798.285 475.208 805.342 C 474.061 807.09 473.665 807.146 471.75 807.596 L 469.799 806.178 C 468.337 802.621 469.216 798.719 469.646 794.999 C 466.923 797.961 463.886 800.652 460.95 803.401 C 458.48 804.751 455.779 805.921 452.995 806.447 C 449.622 807.083 445.795 806.228 443.211 803.913 C 440.469 801.457 439.153 797.713 438.713 794.152 C 437.681 785.787 441.04 776.893 446.404 770.545 C 453.522 762.121 461.961 759.439 472.499 758.348 z"/>
<path transform="translate(0,0)" fill="rgb(253,250,236)" d="M 471.17 764.059 C 473.489 764.519 473.466 764.37 474.846 766.263 C 475.561 771.309 473.719 776.898 471.506 781.403 C 467.175 790.219 461.658 797.096 452.119 800.196 C 449.342 798.531 447.91 797.021 446.98 793.913 C 445.533 789.073 446.929 783.929 449.42 779.685 C 454.676 770.728 461.328 766.522 471.17 764.059 z"/>
<path transform="translate(0,0)" fill="rgb(83,5,1)" d="M 1490.33 761.14 C 1498.27 760.423 1504.03 761.201 1511.47 763.791 C 1508.29 776.541 1507.5 803.027 1498.13 811.413 C 1495.36 809.22 1495.88 805.946 1495.46 802.517 L 1494.48 802.02 L 1491.31 805.271 C 1490.05 806.54 1488.43 807.694 1486.85 808.514 C 1483.62 810.19 1479.68 811.071 1476.18 809.718 C 1472.53 808.304 1469.92 804.877 1468.39 801.394 C 1465.3 794.366 1466.57 786.184 1469.6 779.371 C 1473.84 769.851 1480.76 764.629 1490.33 761.14 z"/>
<path transform="translate(0,0)" fill="rgb(253,250,236)" d="M 1498.59 767.235 L 1500.68 768.166 C 1501.14 769.311 1501.22 769.356 1501.4 770.789 C 1502.37 778.903 1496.41 791.349 1491.04 797.178 C 1487.25 801.304 1484.21 802.324 1478.71 802.616 C 1476.46 800.014 1475.03 797.716 1474.49 794.249 C 1473.6 788.46 1474.96 783.001 1478.44 778.301 C 1484.01 770.757 1489.74 768.672 1498.59 767.235 z"/>
<path transform="translate(0,0)" fill="rgb(83,5,1)" d="M 1506.69 1116.14 C 1513.33 1115.7 1519.53 1115.68 1525.75 1118.39 C 1531.38 1120.84 1536.43 1124.88 1538.66 1130.76 C 1540.22 1134.89 1540.03 1139.32 1537.97 1143.24 C 1534.1 1150.63 1526.55 1153.64 1519.06 1155.99 C 1512.29 1157.04 1505.78 1156.51 1499.48 1153.67 C 1493.93 1151.16 1488.81 1146.72 1486.74 1140.85 A 15.4813 15.4813 0 0 1 1487.84 1127.91 C 1491.79 1120.92 1499.38 1118.16 1506.69 1116.14 z"/>
<path transform="translate(0,0)" fill="rgb(221,173,151)" d="M 1505.1 1123.12 C 1509.22 1122.86 1513.38 1122.62 1517.46 1123.47 C 1521.99 1124.43 1528.58 1127.34 1530.97 1131.59 C 1532.26 1133.89 1532.8 1136 1531.99 1138.58 C 1530.19 1144.24 1524.47 1146.47 1519.56 1148.74 C 1515.72 1149.12 1511.79 1149.43 1507.97 1148.77 C 1503.25 1147.96 1496.75 1144.7 1494.31 1140.38 C 1493.06 1138.17 1492.44 1135.91 1493.24 1133.41 C 1494.97 1127.95 1500.34 1125.41 1505.1 1123.12 z"/>
<path transform="translate(0,0)" fill="rgb(83,5,1)" d="M 870.4 705.258 L 870.041 701.436 C 872.252 698.877 874.068 698.526 877.424 698.368 C 901.674 697.222 928.412 709.962 945.571 726.488 A 92.9431 92.9431 0 0 1 974.379 792.829 C 974.831 818.611 965.043 841.746 947.108 860.175 C 930.315 877.433 904.311 889.249 880.078 889.529 C 876.396 889.572 873.654 889.428 870.558 887.26 C 869.993 885.641 869.903 885.053 869.921 883.251 C 875.582 882.331 881.54 882.472 887.278 881.736 C 905.68 879.379 922.675 872.232 936.659 859.929 C 954.555 844.185 965.361 823.402 966.591 799.503 C 967.787 776.269 960.535 753.416 944.659 736.198 C 924.169 713.974 899.699 706.562 870.4 705.258 z"/>
<path transform="translate(0,0)" fill="rgb(106,18,8)" d="M 872.801 1437.13 C 895.308 1436.02 918.201 1436.82 940.759 1436.82 L 1065.26 1436.85 L 1161.53 1436.86 C 1171.9 1436.86 1195.61 1434.96 1204.65 1437.79 C 1206.5 1439.94 1206.37 1440.19 1206.55 1443.05 C 1206.2 1443.11 1205.86 1443.17 1205.51 1443.22 C 1190.07 1445.14 880.127 1444.52 876.833 1443.43 C 875.312 1442.92 874.995 1442.84 873.872 1441.79 C 872.662 1440.66 872.957 1438.69 872.801 1437.13 z"/>
<path transform="translate(0,0)" fill="rgb(106,18,8)" d="M 1184.87 1567.52 C 1190.62 1567.32 1200.24 1565.93 1205.51 1568.49 C 1207.24 1569.33 1206.62 1568.88 1207.42 1570.93 L 1206.03 1573.45 C 1198.7 1576.68 932.078 1574.89 896.25 1574.87 C 889.177 1575.04 878.534 1576.43 872.508 1572.04 L 872.64 1570.71 C 874.404 1569.28 875.862 1568.23 878.182 1567.96 C 887.102 1566.9 897.382 1567.92 906.427 1567.92 L 971 1567.88 L 1184.87 1567.52 z"/>
<path transform="translate(0,0)" fill="rgb(106,18,8)" d="M 873.83 1695.02 L 1126.81 1694.89 C 1137.4 1694.89 1197.85 1693.31 1204.37 1695.25 C 1205.04 1695.45 1205.48 1696.09 1206.04 1696.51 C 1206.89 1699.13 1206.79 1699.13 1205.77 1701.71 C 1174.84 1703.1 878.2 1702.88 873.784 1701.18 C 872.799 1698.62 873.291 1697.66 873.83 1695.02 z"/>
<path transform="translate(0,0)" fill="rgb(83,5,1)" d="M 1338 742.438 C 1338.29 742.425 1338.57 742.408 1338.86 742.4 C 1348.4 742.116 1361.45 741.712 1368.61 749.064 C 1370.9 751.411 1372.21 754.519 1371.97 757.819 C 1371.42 765.379 1365.17 770.807 1359.66 775.176 C 1361.56 776.145 1363.43 777.429 1364.77 779.113 C 1367.43 782.444 1368.75 787.103 1368.04 791.313 C 1366.95 797.776 1362.67 801.739 1357.67 805.5 A 81.2429 81.2429 0 0 1 1352.55 807.141 C 1344.74 809.392 1328.99 811.274 1321.88 807.368 C 1321.45 806.122 1321.3 805.141 1321.44 803.821 C 1322.17 796.776 1333.4 746.061 1338 742.438 z"/>
<path transform="translate(0,0)" fill="rgb(253,250,236)" d="M 1342.5 749.12 C 1347.23 749.299 1352.84 749.412 1357.22 751.289 C 1360.61 752.742 1362.13 754.473 1363.37 757.89 C 1362.94 763.174 1360.22 766.457 1356.51 770.032 C 1350.07 772.052 1343.39 771.262 1336.79 770.75 C 1338.96 763.643 1340.63 756.314 1342.5 749.12 z"/>
<path transform="translate(0,0)" fill="rgb(253,250,236)" d="M 1335.55 777.953 C 1343.1 778.998 1350.69 778.479 1357.22 783.179 C 1359.59 784.885 1359.96 786.471 1360.59 789.188 C 1359.37 794.278 1355.87 797.581 1351.63 800.395 C 1344.3 802.701 1337.72 802.571 1330.17 802.157 C 1331.39 794.038 1333.67 785.947 1335.55 777.953 z"/>
<path transform="translate(0,0)" fill="rgb(221,173,151)" d="M 870.191 465.232 C 884.584 465.947 896.55 468.243 906.654 479.664 A 36.0048 36.0048 0 0 1 915.828 506.231 A 38.5356 38.5356 0 0 1 901.659 533.416 C 892.423 540.901 882.084 542.276 870.683 543.086 C 871.985 529.234 872.356 477.866 870.191 465.232 z"/>
<path transform="translate(0,0)" fill="rgb(83,5,1)" d="M 868.964 1214.19 C 875.343 1213.71 881.449 1213.2 887.755 1214.71 C 895.293 1216.5 902.215 1220.61 906.152 1227.46 C 910.436 1234.91 910.452 1244.39 908.062 1252.46 C 904.342 1265.02 895.194 1273.13 884.092 1279.21 C 876.912 1282.42 868.399 1284.52 860.546 1285.04 C 856.145 1285.33 851.816 1285.23 848.396 1282.15 C 845.661 1276.88 856.444 1226.38 857.831 1217.67 C 861.486 1216.19 865.153 1215.19 868.964 1214.19 z"/>
<path transform="translate(0,0)" fill="rgb(253,250,236)" d="M 871.96 1221.36 C 875.865 1221.05 879.949 1220.8 883.828 1221.48 C 889.053 1222.39 893.928 1225.54 896.725 1230.07 C 900.377 1235.97 900.433 1243.69 898.697 1250.23 C 895.792 1261.18 888.854 1267.67 879.324 1272.95 C 871.636 1275.99 864.143 1277.02 855.999 1277.94 C 857.862 1267.28 862.57 1229.87 866.95 1223.34 C 867.956 1221.84 870.275 1221.77 871.96 1221.36 z"/>
<path transform="translate(0,0)" fill="rgb(189,142,112)" d="M 347.715 913.18 C 359.767 911.461 372.92 912.489 385.127 912.517 L 454.206 912.636 L 662.518 912.671 C 676.556 912.642 734.564 910.809 744.353 913.245 C 746.894 913.877 747.459 914.927 748.651 917.108 C 747.809 920.604 747.18 921.062 744.751 923.545 C 720.16 924.636 694.976 923.526 670.325 923.505 L 519.321 923.254 L 406.22 923.227 C 388.64 923.241 370.316 924.431 352.808 923.331 C 349.379 923.115 347.731 922.359 345.478 919.822 C 345.36 916.596 346.107 915.897 347.715 913.18 z"/>
<path transform="translate(0,0)" fill="rgb(189,142,112)" d="M 349.079 1035.03 C 377.12 1032.89 407.061 1034.84 435.359 1034.89 L 603.571 1034.94 L 701.712 1034.89 C 713.408 1034.88 731.662 1033.23 742.578 1035.23 C 745.375 1035.75 746.124 1036.62 747.681 1038.88 C 747.87 1042.21 747.168 1043.99 745.737 1046.97 C 715.611 1048.11 685.037 1047.01 654.871 1046.95 L 477.357 1046.7 L 394.158 1046.94 C 382.405 1046.99 361.54 1049 351.028 1046.16 C 348.482 1045.48 347.767 1044.54 346.384 1042.4 C 346.28 1039.01 347.22 1037.66 349.079 1035.03 z"/>
<path transform="translate(0,0)" fill="rgb(189,142,112)" d="M 1219.46 909.148 C 1247.86 908.466 1276.46 909.155 1304.88 909.146 L 1517.1 909.68 C 1534.43 909.696 1624.23 907.023 1633.4 909.971 C 1635.88 910.769 1636.37 911.793 1637.33 914.066 C 1637.05 917.215 1636.33 918.399 1634.59 920.908 C 1602.42 923.168 1225.52 923.334 1218.54 919.809 C 1217.27 919.167 1217.18 917.775 1216.72 916.525 C 1217.05 913.319 1217.84 911.83 1219.46 909.148 z"/>
<path transform="translate(0,0)" fill="rgb(189,142,112)" d="M 1217.9 1034.09 C 1231.83 1033.16 1246.18 1033.88 1260.15 1033.94 L 1335.19 1034.04 C 1362.77 1034.05 1626.26 1032.24 1633.29 1034.84 C 1635.92 1035.81 1636.42 1036.85 1637.52 1039.31 C 1637.4 1042.43 1636.61 1043.78 1635.07 1046.39 C 1625.62 1047.49 1615.7 1046.94 1606.19 1046.95 L 1558.64 1046.99 L 1395.83 1047 L 1276.59 1046.99 C 1260.12 1046.99 1238.39 1048.8 1222.61 1046.81 C 1219.25 1046.39 1217.99 1045.34 1216.07 1042.66 C 1215.68 1039.15 1216.47 1037.27 1217.9 1034.09 z"/>
<path transform="translate(0,0)" fill="rgb(83,5,1)" d="M 1472.69 1580.42 C 1488.07 1579.79 1504.04 1583.45 1516.31 1593.08 C 1525.39 1600.21 1532.14 1610.35 1533.28 1622.01 C 1534.33 1632.81 1530.55 1643.58 1523.5 1651.76 C 1511.77 1665.37 1494.82 1670.35 1477.58 1671.52 C 1461.87 1671.86 1445.69 1668.3 1433.11 1658.45 C 1424.05 1651.37 1417.22 1641.06 1416.29 1629.4 C 1415.46 1618.92 1419.52 1608.67 1426.25 1600.73 C 1438 1586.88 1455.18 1581.64 1472.69 1580.42 z"/>
<path transform="translate(0,0)" fill="rgb(221,173,151)" d="M 1472.2 1587.38 C 1486.42 1587.39 1500.68 1590.12 1512.11 1599.14 C 1519.65 1605.09 1524.94 1613.51 1525.76 1623.2 C 1526.5 1632.08 1523.31 1640.55 1517.55 1647.24 C 1507.3 1659.14 1492.56 1663.25 1477.57 1664.55 C 1463.84 1664.68 1449.78 1661.64 1438.72 1653.08 C 1431.31 1647.35 1425.44 1639.05 1424.33 1629.57 C 1423.3 1620.78 1426.64 1612.21 1432.24 1605.52 C 1442.32 1593.44 1457.19 1588.99 1472.2 1587.38 z"/>
<path transform="translate(0,0)" fill="rgb(221,173,151)" d="M 870.4 705.258 C 899.699 706.562 924.169 713.974 944.659 736.198 C 960.535 753.416 967.787 776.269 966.591 799.503 C 965.361 823.402 954.555 844.185 936.659 859.929 C 922.675 872.232 905.68 879.379 887.278 881.736 C 881.54 882.472 875.582 882.331 869.921 883.251 C 870.672 881.297 870.911 879.616 870.958 877.539 C 871.751 842.875 870.49 807.861 870.65 773.136 C 870.733 755.189 872.848 721.146 870.4 705.258 z"/>
<path transform="translate(0,0)" fill="rgb(83,5,1)" d="M 1482.53 1235.39 C 1502.94 1234.24 1523.49 1239.17 1540.37 1250.91 C 1554.69 1260.86 1565.53 1275.55 1568.31 1293.01 C 1570.87 1309.06 1565.71 1325.24 1555.96 1337.99 C 1541.3 1357.15 1520.54 1365.78 1497.25 1369 C 1473.6 1370.58 1449.82 1365.82 1430.88 1350.85 C 1417.95 1340.64 1408.63 1326.07 1406.92 1309.49 A 59.1737 59.1737 0 0 1 1420.01 1265.51 C 1435.68 1246.29 1458.53 1237.89 1482.53 1235.39 z"/>
<path transform="translate(0,0)" fill="rgb(221,173,151)" d="M 1480.85 1243.36 C 1500.26 1241.68 1521.14 1246.46 1537.12 1257.84 C 1549.25 1266.48 1558.23 1279.09 1560.52 1294.03 C 1562.65 1307.88 1558.64 1322.08 1550.34 1333.26 C 1537.04 1351.17 1516.59 1358.82 1495.23 1361.9 C 1474.7 1362.68 1454.49 1358.91 1437.73 1346.36 C 1425.87 1337.47 1416.85 1324.49 1414.98 1309.55 A 52.2699 52.2699 0 0 1 1425.63 1271.18 C 1438.89 1253.83 1460.02 1246.35 1480.85 1243.36 z"/>
<path transform="translate(0,0)" fill="rgb(106,18,8)" d="M 347.874 241.885 C 393.244 240.721 438.884 241.505 484.279 241.437 L 759.762 241.353 L 930.551 241.557 C 957.119 241.724 984.941 240.114 1011.31 242.699 C 1012.69 265.129 1011.74 288.229 1011.79 310.732 L 1011.87 437.975 L 1011.36 827.553 L 1011.1 983.251 C 1011.07 998.736 1012.97 1035.52 1010.01 1047.92 C 1006.53 1046.94 1005.29 1045.82 1002.99 1043.07 C 979.278 1042.12 954.927 1042.38 931.203 1043.2 C 928.102 1043.59 927.479 1044.12 924.787 1042.35 C 919.273 1031.52 924.678 1008.53 928.377 997.006 C 937.625 968.192 959.664 944.703 986.364 931.026 C 991.872 928.204 997.474 925.776 1003.25 923.562 L 1003.88 249.385 L 352.925 249.137 C 337.47 289.118 317.333 319.733 276.584 337.597 C 271.466 339.84 266.174 341.483 260.864 343.19 L 260.111 1130.59 L 260.394 1705.42 C 306.255 1724.21 334.615 1753.76 353.791 1798.91 L 1275.08 1798.82 L 1275.37 1314.83 L 1275.55 1183.47 L 1275.48 1143.23 C 1275.46 1137.45 1274.8 1130.67 1275.57 1124.97 C 1275.95 1122.19 1277.21 1120.7 1278.93 1118.65 C 1280.45 1119.48 1281.79 1120.09 1282.93 1121.44 C 1284.71 1123.55 1283.51 1240.73 1283.49 1256.4 L 1283.2 1625.41 L 1283.31 1737.64 C 1283.35 1760.53 1283.88 1783.52 1282.97 1806.39 C 1262.79 1807.55 1242.11 1806.68 1221.89 1806.69 L 1109.2 1806.72 L 765.251 1806.85 L 486.967 1806.68 L 400.254 1806.83 C 383.054 1806.86 365.363 1807.66 348.224 1806.3 C 343.883 1797.77 340.981 1788.7 336.352 1780.26 C 317.057 1745.09 287.341 1726.15 251.99 1709.65 L 251.988 856.462 L 252.023 521.031 A 13680.4 13680.4 0 0 1 252.859 338.068 C 260.332 335.891 267.688 333.505 274.767 330.236 C 314.852 311.724 333.16 281.613 347.874 241.885 z"/>
<path transform="translate(0,0)" fill="rgb(221,173,151)" d="M 931.203 1043.2 C 929.562 1012.31 935.61 986.377 956.754 962.903 C 969.6 948.641 985.308 938.864 1003.12 931.972 C 1003.12 968.97 1003.76 1006.09 1002.99 1043.07 C 979.278 1042.12 954.927 1042.38 931.203 1043.2 z"/>
<path transform="translate(0,0)" fill="rgb(106,18,8)" d="M 1073.2 242.226 C 1122.93 240.023 1173.23 241.517 1223.04 241.507 L 1490.42 241.533 L 1633.42 241.533 C 1654.47 241.516 1681.52 239.354 1701.89 242.138 C 1716.25 283.981 1735.54 310.942 1776.05 330.871 C 1782.94 334.258 1790.23 337.08 1796.97 340.718 L 1796.83 1705.55 C 1789.14 1713.1 1777.66 1716.67 1768.1 1721.42 C 1751.36 1729.75 1735.99 1745.23 1724.74 1759.92 C 1720.93 1764.89 1717.24 1770.16 1714.3 1775.71 C 1710.59 1782.74 1705.93 1802.53 1699.08 1805.85 C 1693.9 1808.35 1392.13 1807.24 1354.97 1806.79 A 98.0143 98.0143 0 0 1 1348.33 1806.43 C 1347.24 1766.54 1348.02 1726.46 1348 1686.55 L 1347.97 1467.87 L 1348.01 1230.74 C 1348.01 1195.87 1346.98 1160.76 1347.71 1125.92 C 1347.79 1122.24 1347.69 1118.41 1349.61 1115.15 L 1352.74 1113.58 C 1355.04 1116.19 1355.39 1117.82 1355.59 1121.28 C 1357.13 1147.11 1355.64 1173.76 1355.63 1199.67 L 1355.65 1347.17 C 1355.05 1497.57 1354.07 1648.14 1355.61 1798.54 L 1597.95 1798.79 A 163.241 163.241 0 0 1 1599 1780.04 A 157.782 157.782 0 0 1 1658 1676.04 C 1695.7 1646.39 1741.4 1635.45 1788.62 1641.05 L 1788.29 1344.59 C 1781.13 1345.92 1774.28 1347.03 1766.96 1346.54 C 1751.43 1345.51 1735.21 1338.32 1725.15 1326.25 A 42.5548 42.5548 0 0 1 1715.38 1293.42 C 1716.89 1280.93 1723.81 1270.21 1733.63 1262.56 C 1750.13 1249.72 1768.47 1247.93 1788.6 1250.36 C 1787.88 1205.3 1788.45 1160.15 1788.36 1115.08 A 29444.8 29444.8 0 0 1 1788.67 817.324 L 1788.47 343.936 C 1784.49 342.61 1780.5 341.15 1776.66 339.444 C 1734.28 320.606 1712.16 291.23 1695.74 249.038 L 1080.82 249.214 L 1080.23 860.971 C 1080.22 885.874 1081.86 1036.31 1079.51 1042.41 C 1078.36 1045.39 1076.57 1045.72 1073.94 1047.06 C 1070.75 1034.57 1072.8 996.217 1072.81 980.992 L 1072.89 828.226 L 1073.01 447.419 L 1072.98 313.069 C 1072.99 289.518 1072.37 265.757 1073.2 242.226 z"/>
<path transform="translate(0,0)" fill="rgb(221,173,151)" d="M 1763.96 1257.24 C 1772.29 1256.6 1780.48 1257.13 1788.72 1258.29 A 6938.26 6938.26 0 0 0 1788.8 1334.58 C 1776.57 1339.82 1766.41 1340.35 1753.73 1336.52 C 1751.68 1335.74 1749.76 1334.88 1747.8 1333.89 C 1737.21 1328.54 1727.8 1320.72 1724.31 1308.94 C 1721.43 1299.24 1723.07 1288.71 1728.19 1280.05 C 1736.17 1266.53 1749.5 1261 1763.96 1257.24 z"/>
<path transform="translate(0,0)" fill="rgb(221,173,151)" d="M 1750.8 1647.4 C 1763.24 1646.07 1776.59 1646.85 1788.88 1649.22 L 1788.8 1703.62 A 118.336 118.336 0 0 0 1771.11 1710.67 C 1733.66 1729.35 1710 1759.75 1696.88 1798.84 L 1647.25 1798.66 L 1606.05 1798.73 C 1605.62 1766.08 1618.07 1731.85 1638.26 1706.32 C 1666.31 1670.85 1706.65 1652.53 1750.8 1647.4 z"/>
<path transform="translate(0,0)" fill="rgb(83,5,1)" d="M 560.524 300.223 C 582.802 298.62 601.179 304.949 619.57 317.446 C 642.587 333.085 658.705 352.752 664.087 380.343 C 672.105 384.351 674.941 389.835 681.237 395.33 C 683.625 397.414 686.704 398.674 689.439 400.252 C 705.432 409.479 715.419 422.735 720.275 440.483 C 723.903 442.877 727.718 445.469 730.866 448.487 C 737.769 455.102 742.212 463.513 742.167 473.198 C 742.092 489.291 731.404 501.103 720.767 511.789 C 711.943 552.154 709.84 627.164 678.65 655.762 C 653.77 678.573 599.944 680.137 567.217 679.123 A 208.865 208.865 0 0 1 540.482 677.685 C 516.548 674.893 489.48 670.056 473.802 649.884 C 454.433 624.963 445.472 579.027 439.083 548.184 C 436.868 537.49 435.241 526.179 432.163 515.726 C 426.878 497.779 410.651 493.817 413.744 470.101 C 415.979 452.959 425.404 442.269 438.487 432.158 C 439.619 426.017 440.968 419.982 443.625 414.294 C 449.893 400.875 461.795 389.563 475.733 384.446 C 484.823 381.109 488.206 372.899 496.476 369.406 C 517.036 360.72 543.429 362.03 561.612 347.826 C 565.853 344.513 569.905 340.025 570.379 334.411 C 570.658 331.103 569.669 327.951 568.164 325.042 C 559.914 309.096 543.662 316.689 538.07 309.846 C 538.225 309.556 538.343 309.244 538.534 308.976 C 542.562 303.349 554.114 301.581 560.524 300.223 z"/>
<path transform="translate(0,0)" fill="rgb(248,231,192)" d="M 710.596 517.99 L 711.123 518.425 C 714.315 527.593 696.445 605.047 692.041 618.022 C 686.263 635.048 678.56 650.278 661.723 658.562 L 661.257 658.314 C 660.768 655.376 673.338 629.803 675.397 623.584 C 686.077 591.327 691.342 559.258 694.639 525.565 L 710.596 517.99 z"/>
<path transform="translate(0,0)" fill="rgb(248,231,192)" d="M 440.225 518.493 C 447.193 522.484 454.235 525.694 461.646 528.775 C 468.324 575.11 477.937 621.946 502.088 662.684 C 498.644 661.461 495.425 659.679 492.323 657.756 C 459.676 637.509 448.205 553.838 440.225 518.493 z"/>
<path transform="translate(0,0)" fill="rgb(248,231,192)" d="M 685.837 528.263 C 686.749 529.148 686.902 530.23 687.014 531.501 C 687.622 538.414 685.28 548.137 684.181 555.093 C 678.52 590.901 670.257 633.779 648.71 663.529 C 644.041 664.97 639.191 665.747 634.397 666.665 L 634.111 666.404 C 633.206 663.381 642.141 641.918 643.634 636.985 C 653.767 603.503 657.251 569.166 662.285 534.704 C 670.059 532.343 677.993 530.385 685.837 528.263 z"/>
<path transform="translate(0,0)" fill="rgb(253,250,236)" d="M 648.898 537.41 C 650.64 536.973 651.555 536.997 653.298 537.423 C 654.834 542.788 652.509 552.385 651.822 558.07 C 647.194 596.412 639.312 633.249 624.185 668.908 L 613.266 670.504 C 612.472 670.566 611.1 670.296 610.291 670.203 C 608.409 663.552 614.605 643.615 615.731 635.623 C 620.206 603.866 622.956 572.24 625.11 540.259 L 648.898 537.41 z"/>
<path transform="translate(0,0)" fill="rgb(253,250,236)" d="M 611.423 541.423 L 616.013 541.117 L 617.546 542.513 C 618.098 565.962 609.311 649.619 601.539 670.076 C 599.04 672.35 596.572 672.192 593.384 672.393 C 590.725 672.473 588.206 672.333 585.56 672.12 C 583.356 659.694 585.705 642.153 585.909 629.207 C 586.361 600.48 586.283 571.729 586.388 542.997 C 594.755 543.119 603.098 542.179 611.423 541.423 z"/>
<path transform="translate(0,0)" fill="rgb(248,231,192)" d="M 469.55 531.302 C 479.859 534.164 490.206 536.2 500.71 538.17 C 506.191 584.105 514.373 625.167 528.168 669.329 C 523.304 668.559 518.437 667.293 513.619 666.254 C 486.659 627.701 475.703 577.345 469.55 531.302 z"/>
<path transform="translate(0,0)" fill="rgb(248,231,192)" d="M 508.642 539.564 C 519.007 540.814 529.431 541.43 539.844 542.143 C 542.422 585.796 547.354 628.631 553.283 671.922 L 536.79 670.188 C 520.61 628.283 513.456 584.016 508.642 539.564 z"/>
<path transform="translate(0,0)" fill="rgb(248,231,192)" d="M 547.201 542.377 C 557.743 542.966 568.337 542.867 578.894 542.95 A 9427.2 9427.2 0 0 1 578.004 672.749 C 572.161 672.854 566.297 672.573 560.455 672.415 C 554.743 629.224 548.987 585.949 547.201 542.377 z"/>
<path transform="translate(0,0)" fill="rgb(253,250,236)" d="M 558.262 307.451 A 97.6159 97.6159 0 0 1 568.306 306.926 C 593.482 306.693 617.049 321.435 634.346 338.737 C 644.157 348.55 655.509 362.891 655.126 377.473 C 654.854 387.822 648.535 397.531 641.126 404.341 C 620.538 423.262 594.51 423.647 568.213 422.895 C 556.114 421.485 543.466 419.94 531.827 416.249 C 519.47 412.331 494.962 402.071 489.276 389.441 C 488.484 387.681 488.323 385.532 489.27 383.822 C 495.071 373.351 525.72 369.194 537.168 366.123 C 550.775 362.474 566.746 357.226 573.909 344 C 577.15 338.015 578.276 330.222 576.218 323.66 C 573.543 315.132 565.633 311.238 558.262 307.451 z"/>
<path transform="translate(0,0)" fill="rgb(253,250,236)" d="M 661.448 388.362 C 663.727 389.248 666.168 390.474 668.175 391.865 C 671.08 393.878 672.797 396.04 673.379 399.637 C 674.406 405.976 668.971 413.167 665.097 417.601 C 648.023 437.147 624.876 442.514 600.102 444.278 C 597.102 444.492 595.063 445.037 593.12 447.515 C 591.93 449.034 592.263 448.479 592.652 450.518 C 593.19 450.781 593.689 451.145 594.266 451.306 C 604.458 454.147 627.332 448.267 637.137 444.535 C 657.352 436.841 672.654 424.331 681.592 404.463 C 688.645 407.524 695.244 411.709 700.683 417.178 C 707.34 423.872 712.365 433 712.172 442.648 C 711.766 462.926 687.706 478.678 670.599 484.908 C 662.845 487.732 647.555 488.98 642.211 494.755 C 641.137 495.915 641.575 495.832 641.768 497.667 C 642.012 497.827 642.236 498.023 642.501 498.146 C 648.926 501.138 668.753 494.051 675.093 491.548 C 696.458 483.113 710.78 469.599 719.831 448.703 C 721.953 450.162 723.894 451.662 725.765 453.441 C 731.388 458.787 735.3 465.334 735.263 473.279 C 735.216 483.532 728.779 493.666 721.86 500.771 C 693.187 530.213 622.481 534.572 582.333 535.202 A 249.833 249.833 0 0 1 569.677 535.779 C 531.187 536.375 462.3 532.251 434.638 504.237 C 426.523 496.018 420.529 484.843 420.832 473.033 C 421.199 458.722 430.553 448.31 440.522 439.202 C 451.412 455.825 466.131 465.365 485.389 469.916 C 493.995 471.95 525.905 477.855 532.687 472.741 C 533.721 471.961 533.503 471.14 533.666 469.965 C 532.387 467.936 532.108 467.805 529.601 467.346 C 524.652 466.442 519.099 466.856 514.059 466.667 C 502.703 466.242 491.289 464.767 480.464 461.196 C 468.654 457.3 454.791 450.253 449.271 438.529 C 446.481 432.604 446.495 426.219 448.695 420.1 C 454.064 405.166 467.217 396.219 480.83 389.685 C 487.262 399.581 494.195 406.298 504.457 412.149 C 533.992 428.988 580.703 436.144 613.659 427.089 C 635.281 421.148 650.59 407.631 661.448 388.362 z"/>
<path transform="translate(0,0)" fill="rgb(83,5,1)" d="M 599.227 1158.3 C 604.019 1158.19 608.857 1158.39 613.484 1159.74 C 628.088 1163.98 635.871 1175.93 642.877 1188.43 C 649.043 1184.17 654.871 1180.1 661.999 1177.55 C 672.09 1173.94 682.958 1173.87 692.709 1178.61 C 706.344 1185.23 712.525 1197.56 716.969 1211.24 C 723.617 1207.59 730.628 1204.96 738.256 1204.47 A 38.4163 38.4163 0 0 1 767.202 1214.84 A 37.9127 37.9127 0 0 1 779.485 1242.61 C 779.498 1255.21 773.22 1264.31 764.777 1272.92 L 764.473 1394.09 C 764.425 1414.8 764.934 1435.71 763.96 1456.4 A 23688 23688 0 0 1 481.262 1576.29 C 463.875 1582.97 360.023 1630.08 351.314 1628.33 C 349.765 1626.43 349.365 1624.74 349.155 1622.36 C 347.4 1602.46 348.981 1581 348.992 1560.96 L 348.942 1434.19 C 357.304 1422.01 368.137 1411.56 377.688 1400.32 C 381.794 1395.49 387.255 1386.64 382.771 1380.26 C 380.162 1376.55 376.535 1373.55 374.239 1369.59 C 371.487 1364.84 370.224 1358.08 369.851 1352.68 C 369.192 1343.13 371.618 1333.05 378.084 1325.77 C 385.174 1317.79 394.002 1315.47 404.195 1314.66 A 848.47 848.47 0 0 1 410.956 1295.46 C 428.338 1292.5 456.075 1295.83 470.545 1291.16 C 497.628 1282.4 523.481 1224.04 563.665 1207.99 C 562.749 1195.94 564.115 1184 571.288 1173.88 C 578.151 1164.19 587.863 1159.99 599.227 1158.3 z"/>
<path transform="translate(0,0)" fill="rgb(189,142,112)" d="M 407.632 1322.44 C 412.916 1321.99 420.526 1322 425.464 1324.03 C 429.675 1325.76 432.85 1328.71 434.43 1333.03 C 437.043 1340.16 435.201 1348.84 431.801 1355.38 C 425.977 1366.59 416.144 1372.04 404.635 1375.79 A 79.9459 79.9459 0 0 1 402.401 1376.15 C 396.234 1377.03 391.311 1375.89 386.348 1371.97 C 380.407 1367.27 377.359 1359.98 376.817 1352.55 C 376.252 1344.81 378.382 1336.9 383.711 1331.11 C 390.544 1323.68 398.204 1322.97 407.632 1322.44 z"/>
<path transform="translate(0,0)" fill="rgb(253,250,236)" d="M 422.452 1303.36 C 435.302 1306.3 448.493 1305.32 460.319 1312.17 C 470.822 1318.26 479.406 1328.3 482.358 1340.22 C 484.625 1349.37 483.754 1358.81 478.475 1366.77 C 468.848 1381.27 449.114 1385.9 433.067 1388.73 C 421.592 1390.8 408.587 1392.13 397.002 1390.03 C 394.52 1389.58 393.4 1389.44 391.909 1387.28 C 394.908 1382.74 404.999 1382.15 410.057 1380.87 C 421.767 1377.9 431.225 1372.26 437.239 1361.52 C 442.289 1352.5 445.178 1340.84 442.142 1330.68 C 439.427 1321.59 434.018 1318.82 426.392 1314.64 C 425.4 1310.66 424.122 1307.1 422.452 1303.36 z"/>
<path transform="translate(0,0)" fill="rgb(172,113,77)" d="M 600.061 1166.24 C 602.773 1166.13 605.524 1166.13 608.217 1166.54 C 625.031 1169.09 632.289 1187.95 640.909 1200.29 C 648.574 1194.15 656.502 1187.65 665.968 1184.53 C 674.237 1181.81 683.137 1182.28 690.766 1186.62 C 704.672 1194.54 709.372 1211.14 713.069 1225.58 C 720.374 1219.24 727.473 1213.07 737.537 1211.98 C 746.062 1211.05 754.314 1214.39 760.671 1219.95 C 767.158 1225.63 771.293 1233.81 771.472 1242.49 C 771.688 1252.95 767.07 1259.5 760.091 1266.55 C 754.052 1270.73 748.517 1274.02 740.949 1274.56 C 731.094 1275.26 721.427 1271.06 714.102 1264.65 C 704.359 1256.13 699.476 1245.84 698.461 1233.12 C 689.345 1234.81 679.629 1236.65 670.337 1235.76 C 652.982 1234.11 643.494 1220.17 633.489 1207.68 C 621.044 1210.4 587.449 1216.4 576.091 1210.86 C 573.38 1209.53 571.709 1206.73 571.022 1203.89 C 569.205 1196.39 572.72 1186.31 576.929 1180.14 C 582.754 1171.62 590.084 1167.86 600.061 1166.24 z"/>
<path transform="translate(0,0)" fill="rgb(138,81,52)" d="M 562.514 1216.88 C 568.378 1216.55 576.274 1218.98 582.258 1219.71 C 599.135 1221.79 614.72 1219.78 631.283 1216.35 C 636.454 1223.39 641.676 1230.34 648.821 1235.52 C 661.583 1244.76 677.004 1244.67 691.834 1242.04 C 692.483 1244.74 693.252 1247.33 694.242 1249.93 C 700.533 1266.43 712.675 1274.03 727.949 1281 C 720.294 1284.83 711.784 1287.46 703.789 1290.57 A 1419.8 1419.8 0 0 0 664.322 1306.64 C 595.252 1335.97 525.807 1363.99 456.267 1392.19 C 438.997 1399.2 421.412 1405.39 404.031 1412.12 C 391.158 1417.1 378.55 1422.71 365.416 1427 C 373.488 1416.26 381.757 1406.22 391.489 1396.91 C 415.688 1399.53 446.681 1397.25 468.583 1385.71 C 478.738 1380.35 487.576 1371.87 490.682 1360.53 C 493.926 1348.69 490.658 1335.21 484.256 1324.99 C 475.462 1310.95 462.689 1304.89 447.177 1301.35 C 457.408 1300.69 467.559 1300.37 477.142 1296.31 C 504.621 1284.66 526.092 1235.07 562.514 1216.88 z"/>
<path transform="translate(0,0)" fill="rgb(83,5,1)" d="M 547.1 1254.16 C 550.679 1253.91 554.209 1253.94 557.637 1255.12 C 571.095 1259.74 585.119 1275.32 590.867 1288.19 C 593.266 1293.57 594.401 1299.65 591.863 1305.19 C 587.292 1315.18 571.344 1319.36 561.787 1322.53 C 552.035 1324.73 540.468 1327.25 530.583 1324.97 C 526.03 1323.92 522.035 1321.71 519.736 1317.51 C 515.582 1309.91 518.058 1298.9 520.542 1291.02 C 525.061 1276.68 533.454 1261.34 547.1 1254.16 z"/>
<path transform="translate(0,0)" fill="rgb(138,81,52)" d="M 549.04 1262.12 C 551.711 1261.89 554.503 1261.59 557.08 1262.53 C 566.923 1266.09 581.094 1282.74 585.038 1292.38 C 586.298 1295.46 586.81 1298.44 585.237 1301.53 C 581.123 1309.62 567.401 1312.69 559.391 1315 C 551.575 1316.69 541.629 1318.65 533.683 1317.43 C 530.595 1316.95 527.644 1315.88 526.016 1313 C 523.825 1309.12 524.996 1303.53 526.037 1299.48 C 529.583 1285.7 536.396 1269.67 549.04 1262.12 z"/>
<path transform="translate(0,0)" fill="rgb(138,81,52)" d="M 755.998 1277.15 C 758.452 1280.05 756.212 1437.67 756.067 1452.1 C 684.068 1484.14 610.797 1513.68 538.06 1544 L 357.194 1620.46 C 354.673 1608.42 356.589 1582.51 356.561 1569.14 L 356.033 1439.67 C 368.925 1435.31 381.419 1429.47 394.147 1424.59 L 505.785 1380.55 A 18855.5 18855.5 0 0 0 755.998 1277.15 z"/>
<path transform="translate(0,0)" fill="rgb(83,5,1)" d="M 725.011 1320.03 C 725.925 1320.04 726.84 1320.08 727.751 1320.16 C 730.713 1320.43 732.756 1321.79 734.488 1324.2 C 740.161 1332.11 737.092 1354.41 735.699 1363.78 C 720.904 1374.53 674.318 1391.13 655.367 1397.57 C 654.429 1397.49 653.918 1397.47 652.948 1397.22 C 649.644 1396.35 647.208 1394.33 645.711 1391.27 C 642.75 1385.21 641.614 1362.22 644.563 1356.15 C 649.295 1346.41 711.8 1324.79 725.011 1320.03 z"/>
<path transform="translate(0,0)" fill="rgb(248,231,192)" d="M 724.396 1328.88 C 725.484 1328.85 726.261 1329.28 727.262 1329.67 C 731.135 1336.95 729.113 1351.66 728.969 1359.99 C 705.642 1371.05 680.57 1380.15 656.281 1388.93 C 654.762 1389.08 654.309 1388.91 652.911 1388.42 C 648.769 1382.07 650.896 1366.94 651.074 1359.33 C 666.008 1348.45 705.406 1336.62 724.396 1328.88 z"/>
<path transform="translate(0,0)" fill="rgb(83,5,1)" d="M 475.082 1428.1 C 476.884 1428.13 478.183 1428.33 479.916 1428.92 C 483.656 1430.2 486.524 1433.39 488.132 1436.91 C 491.715 1444.76 491.428 1456.52 488.088 1464.39 C 486.432 1468.28 483.378 1472.35 479.585 1474.4 C 472.81 1478.06 463.768 1480.28 456.476 1483.37 L 387.457 1512.73 C 384.611 1513.26 382.268 1513.59 379.482 1512.47 C 376.591 1511.31 375.013 1508.81 374.227 1505.93 C 372.3 1498.87 372.189 1476.95 376.354 1470.67 C 381.098 1463.52 463.806 1431.01 475.082 1428.1 z"/>
<path transform="translate(0,0)" fill="rgb(248,231,192)" d="M 476.145 1435.98 C 476.406 1436.06 476.675 1436.11 476.93 1436.21 C 478.812 1436.93 480.668 1438.42 481.491 1440.26 C 483.831 1445.5 482.451 1458.5 480.425 1463.62 C 474.646 1469.34 398.178 1499.88 386.208 1504.17 L 383.747 1504.51 C 381.674 1503.4 382.141 1504.15 381.476 1502.31 C 379.017 1495.54 379.85 1481.68 383.059 1475.37 C 384.015 1473.49 385.475 1472.13 387.382 1471.25 C 391.569 1469.3 396.201 1468.32 400.449 1466.47 C 425.133 1455.71 450.633 1444.55 476.145 1435.98 z"/>
<path transform="translate(0,0)" fill="rgb(83,5,1)" d="M 607.914 1370.13 C 609.391 1369.93 611.032 1369.63 612.52 1369.69 C 615.419 1369.82 617.936 1371.03 619.877 1373.19 C 627.104 1381.27 623.895 1399.98 623.004 1409.95 C 611.736 1420.7 541.95 1447.17 522.863 1454.65 C 520.306 1455.04 517.098 1455.4 514.615 1454.58 C 511.715 1453.63 509.857 1451.28 508.681 1448.59 C 505.329 1440.92 505.59 1422.8 508.834 1415.05 C 509.883 1412.55 511.106 1410.92 513.404 1409.4 C 525.63 1401.32 549.295 1393.59 563.473 1388.08 C 578.359 1382.28 592.993 1375.87 607.914 1370.13 z"/>
<path transform="translate(0,0)" fill="rgb(248,231,192)" d="M 609.258 1376.87 C 611.831 1377.08 612.353 1377.03 614.4 1378.53 C 618.432 1385.95 616.225 1398.36 615.786 1406.64 C 602.925 1415.77 585.971 1420.63 571.434 1426.62 C 554.76 1433.48 538.19 1440.84 521.254 1447.02 C 518.964 1447.2 518.123 1447.07 516.162 1445.86 C 511.591 1438.04 514.286 1425.22 515.347 1416.59 C 526.716 1410.4 539.341 1405.9 551.303 1400.94 L 609.258 1376.87 z"/>
<path transform="translate(0,0)" fill="rgb(83,5,1)" d="M 722.925 1392.96 C 724.005 1392.96 725.088 1392.94 726.166 1393.01 C 729.409 1393.21 733.016 1394.13 734.961 1396.95 C 738.278 1401.77 738.218 1429.07 736.168 1434.51 C 735.254 1436.93 733.211 1438.27 731.036 1439.42 C 718.014 1446.33 703.669 1451.38 690.037 1456.99 A 4393.24 4393.24 0 0 0 625.04 1484.18 L 388.181 1583.99 C 385.732 1584.14 382.567 1584.39 380.231 1583.48 C 377.443 1582.4 375.945 1581 374.729 1578.29 C 372.113 1572.46 372.714 1549.13 375.472 1543.32 C 377.741 1538.55 383.541 1535.87 388.079 1533.7 C 405.436 1525.41 423.952 1518.93 441.788 1511.72 A 5568.26 5568.26 0 0 0 517.826 1479.89 L 631.852 1431.4 C 662.106 1418.38 692.238 1404.93 722.925 1392.96 z"/>
<path transform="translate(0,0)" fill="rgb(248,231,192)" d="M 727.075 1400 C 727.255 1400.18 727.455 1400.34 727.615 1400.54 C 731.346 1405.14 729.273 1425.37 729.163 1431.78 C 708.148 1442.04 686.03 1450.46 664.464 1459.52 L 556.035 1505.22 L 453.911 1548.6 C 430.784 1558.37 407.46 1568.62 383.703 1576.77 C 382.941 1575.88 382.217 1574.94 381.821 1573.82 C 379.45 1567.13 380.074 1552.45 382.455 1545.66 C 391.127 1538.58 472.115 1507.48 488.909 1500.39 L 625.852 1442.16 C 659.3 1427.79 692.937 1412.62 727.075 1400 z"/>
<path transform="translate(0,0)" fill="rgb(83,5,1)" d="M 1459.52 353.418 C 1521.81 349.297 1586.13 359.955 1639.89 392.819 C 1666.24 408.931 1707.6 441.681 1714.7 473.565 C 1717.69 486.934 1714.37 500.895 1706.95 512.255 C 1698.28 525.532 1685.13 536.021 1672.55 545.371 C 1597.31 601.293 1480.78 634.034 1389.81 653.712 A 851.515 851.515 0 0 1 1319.6 665.048 C 1276.89 669.892 1199.71 678.881 1164.54 649.781 C 1153.16 640.371 1147.39 627.857 1146.23 613.291 C 1142.28 563.41 1175.25 509.815 1206.8 473.505 C 1269.57 401.268 1365.1 359.995 1459.52 353.418 z"/>
<path transform="translate(0,0)" fill="rgb(172,113,77)" d="M 1588.76 376.658 C 1603.29 379.918 1621.14 389.155 1633.75 397.249 C 1637.17 419.239 1639.17 446.596 1629.1 467.108 C 1628.72 467.579 1628.34 468.054 1627.95 468.519 C 1625.72 471.158 1623.42 473.587 1619.83 473.877 C 1615.32 470.174 1616.16 451.051 1615.64 444.859 C 1613.49 418.879 1603.83 397.659 1588.76 376.658 z"/>
<path transform="translate(0,0)" fill="rgb(172,113,77)" d="M 1466.73 359.431 C 1481.95 358.73 1496.76 359.277 1511.92 360.478 C 1524.6 370.147 1536.29 381.622 1544.88 395.114 C 1560.22 419.224 1562.1 447.535 1555.99 475.027 C 1552.85 489.151 1547.3 503.323 1534.62 511.436 C 1533.03 510.179 1532.2 509.859 1531.4 507.926 C 1529.01 502.113 1527.24 477.223 1524.53 466.976 C 1511.47 417.671 1483.19 386.414 1439.79 361.467 L 1466.73 359.431 z"/>
<path transform="translate(0,0)" fill="rgb(172,113,77)" d="M 1232.32 459.331 C 1242.94 458.498 1253.89 460.59 1263.89 464.077 C 1289.44 472.98 1314.54 491.432 1326.45 516.217 C 1333.46 530.814 1338.01 558.192 1331.72 573.365 C 1330.66 575.935 1329.81 576.728 1327.31 577.772 C 1320.5 576.138 1312.42 564.076 1307.84 558.707 A 228.635 228.635 0 0 0 1303.46 553.997 C 1271.48 520.685 1232.91 510.96 1188.13 510.055 C 1200.16 493.176 1215.23 470.971 1232.32 459.331 z"/>
<path transform="translate(0,0)" fill="rgb(172,113,77)" d="M 1364.47 378.93 C 1381.87 383.757 1414.4 407.25 1425.26 421.759 C 1442.89 445.296 1447.83 482.848 1443.56 511.219 C 1441.83 522.704 1436.62 541.636 1426.28 548.267 C 1424.09 549.675 1422.17 549.986 1419.71 548.89 C 1411.4 545.185 1406.47 528.097 1403.58 520.315 C 1399.51 506.994 1392.97 493.905 1385.48 482.194 C 1362.3 445.937 1334.18 421.646 1291.83 412.477 C 1314.09 398.316 1339.82 388.079 1364.47 378.93 z"/>
<path transform="translate(0,0)" fill="rgb(248,231,192)" d="M 1523.9 362.04 C 1542.18 363.832 1559.74 367.61 1577.34 372.788 C 1590.66 386.872 1600.2 406.47 1605.2 425.1 A 133.732 133.732 0 0 1 1608.75 443.529 C 1609.62 450.913 1608.27 472.941 1613.45 477.638 C 1615.93 479.887 1619.04 480.778 1622.34 480.558 C 1626.32 480.294 1629.45 478.371 1632.02 475.402 C 1647.11 457.983 1643.73 423.796 1641.78 402.441 C 1665.55 418.107 1699.27 444.49 1707.2 473.36 C 1710.41 485.029 1707.99 496.145 1702.01 506.466 C 1695.01 518.542 1683.3 527.876 1672.44 536.288 C 1609.65 584.925 1523.98 612.879 1448.15 633.003 C 1387.15 649.192 1230.85 681.663 1175.97 649.084 C 1165.12 642.642 1157.31 632.904 1154.44 620.522 C 1146.74 587.377 1166.27 544.362 1183.83 517.332 C 1226.71 516.328 1257.69 524.379 1291.03 551.686 C 1299.19 559.108 1317.43 584.097 1327.39 584.999 C 1330.11 585.246 1332.82 584.159 1334.84 582.394 C 1339.49 578.343 1340.64 570.217 1341.01 564.447 C 1342.74 537.255 1336.79 512.766 1318.41 491.957 C 1299.22 470.231 1267.75 453.405 1238.67 451.646 C 1253.4 438.833 1268.03 426.681 1285.28 417.301 C 1296.74 419.949 1307.96 423.037 1318.58 428.204 C 1349.17 443.101 1375.05 474.076 1389.37 504.454 C 1396.1 518.739 1402.56 547.875 1416.68 555.407 C 1420.01 557.181 1423.35 557.014 1426.88 555.992 C 1433.93 553.954 1438.35 548.098 1441.64 541.9 C 1456.13 514.592 1453.96 474.488 1444.92 445.885 C 1433.49 409.77 1407.06 392.552 1374.95 375.845 C 1392.57 370.291 1410.47 367.048 1428.65 364.05 C 1477.39 385.922 1509.47 427.44 1520.16 479.713 C 1522.04 488.899 1521.2 509.756 1528.43 516.098 C 1530.03 517.504 1531.78 517.678 1533.81 517.609 C 1539.4 517.419 1543.94 514.64 1547.59 510.54 C 1563.49 492.693 1567.76 461.315 1566.17 438.446 C 1563.83 405.063 1548.5 383.366 1523.9 362.04 z"/>
</svg>