<svg version="1.1" xmlns="http://www.w3.org/2000/svg" style="display: block;" viewBox="0 0 2048 2048" width="1024" height="1024">
<path transform="translate(0,0)" fill="rgb(255,255,255)" d="M 0 0 L 2048 0 L 2048 2048 L 0 2048 L 0 0 z M 129.499 528.467 L 253.171 584.117 C 269.955 591.649 286.205 600.166 303.371 606.85 C 289.337 625.17 276.004 643.448 265.092 663.837 C 228.583 732.054 220.1 812.482 230.115 888.422 C 232.52 906.659 235.208 925.697 239.307 943.612 C 231.699 945.146 225.253 946.924 218.471 950.875 C 191.565 966.549 159.58 1007.71 142.147 1033.96 C 130.338 1051.74 105.797 1087.39 109.934 1108.65 C 112.215 1120.37 119.353 1130.32 129.202 1136.91 C 138.768 1143.31 150.318 1145.28 161.568 1142.84 C 181.162 1138.59 192.607 1120.1 202.835 1104.56 C 194.919 1142.66 190.799 1182.29 187.36 1221.03 C 185.949 1236.91 183.52 1254.73 185.243 1270.61 C 185.884 1276.52 187.983 1281.88 191.243 1286.83 C 197.794 1296.79 208.997 1304.54 220.813 1306.56 C 232.043 1308.48 244.326 1306.33 253.523 1299.42 C 264.559 1291.12 270.828 1277.03 272.485 1263.55 C 276.713 1229.15 274.925 1193.96 278.853 1159.5 C 282.204 1184.85 281.776 1225.94 303.534 1242.88 C 312.382 1249.77 325.017 1252.5 336.026 1250.82 C 347.626 1248.98 358.004 1242.56 364.833 1233.01 C 377.128 1216.02 372.746 1198.11 369.312 1179.13 C 359.322 1123.89 328.707 985.104 282.061 953.305 C 275.122 948.574 267.396 945.737 259.243 943.863 C 239.932 838.327 237.081 735.866 301.006 643.499 C 307.463 634.17 314.706 624.317 322.522 616.048 C 344.644 624.789 368.023 633.735 388.928 645.098 C 385.56 648.385 381.489 651.557 381.193 656.615 C 381.1 658.205 381.392 659.399 381.923 660.856 C 381.133 763.014 380.864 865.175 381.113 967.336 C 390.507 974.731 401.966 980.434 412.098 986.924 C 438.326 1003.98 464.753 1020.73 491.374 1037.17 C 599.595 1104.78 696.896 1175.03 824.278 1201.77 C 1013.23 1241.44 1165.58 1151.26 1318.9 1052.9 C 1363.63 1024.2 1409.1 996.697 1453.63 967.682 C 1453.15 895.909 1452.18 824.141 1450.71 752.381 C 1450.11 720.165 1451.13 687.644 1449.42 655.502 C 1449.43 654.374 1449.44 653.253 1449.36 652.126 C 1449.08 647.746 1446.41 645.984 1443.3 643.364 C 1473.18 628.461 1504.82 616.236 1535.3 602.5 C 1591.43 577.2 1647.48 550.951 1704.39 527.516 C 1686.54 521.792 1669.31 512.072 1652.09 504.64 C 1610.18 487.025 1568.47 468.95 1526.96 450.42 L 1087.74 259.233 L 970.693 207.567 C 952.5 199.537 934.296 190.213 915.574 183.555 C 894.389 188.121 869.182 203.056 848.768 211.997 L 672.975 289.687 L 129.499 528.467 z M 1369.13 1162.19 C 1350.96 1157.07 1334.85 1155.46 1316 1156.26 C 1349.66 1125.83 1385.01 1097.09 1419.56 1067.66 C 1464.86 1029.06 1509.71 989.935 1554.1 950.288 L 1659.35 856.332 C 1678.28 839.206 1696.96 819.372 1717.5 804.326 C 1725.02 798.816 1731.77 797.446 1740.94 797.9 C 1784.28 800.049 1831.73 841.311 1859.13 872.366 C 1886.1 902.926 1905.12 937.466 1917.47 976.168 C 1919.34 982.032 1921.32 993.925 1928.52 994.91 C 1931.55 995.324 1936.55 993.989 1938.56 991.56 C 1940.23 989.545 1940.91 987.754 1940.55 985.164 C 1938.99 973.922 1933.83 962.369 1929.69 951.836 C 1907.21 893.816 1867.94 843.814 1816.9 808.217 C 1791.29 790.712 1757.55 773.649 1725.43 779.149 C 1718.58 780.323 1711.99 784.232 1706.43 788.318 C 1691.11 799.594 1677.18 814.197 1662.96 826.9 C 1631.66 854.88 1600.62 883.212 1568.98 910.806 C 1486.36 984.048 1402.85 1056.27 1318.45 1127.46 C 1299.14 1143.79 1280.21 1160.58 1260.68 1176.66 C 1154.34 1262.99 1047.36 1348.55 939.76 1433.31 L 828.608 1519.73 C 814.575 1530.61 798.789 1540.42 785.634 1552.26 C 780.625 1556.77 775.762 1562.19 772.072 1567.83 C 758.767 1588.18 759.461 1617.34 764.744 1640.01 C 769.545 1660.37 778.189 1679.62 790.213 1696.74 C 795.232 1703.87 800.952 1710.6 805.501 1718.04 C 811.727 1751.43 835.236 1782.16 859.602 1804.67 C 894.729 1837.12 955.134 1870.15 1004.12 1867.9 C 1019.5 1867.2 1033.58 1862.87 1045.24 1852.64 C 1055.04 1844.04 1063.11 1833.56 1071.6 1823.7 C 1080.45 1813.54 1089.45 1803.52 1098.61 1793.63 C 1139.39 1748.83 1180.82 1704.61 1222.89 1661 L 1333.58 1547.34 C 1346.1 1534.66 1358.12 1521.44 1370.85 1508.97 C 1392.7 1487.59 1414.23 1465.78 1436.23 1444.58 C 1454.96 1426.54 1474.68 1408.96 1492.13 1389.69 C 1496.78 1386.86 1500.42 1383.63 1503.37 1379.03 C 1513.04 1373.05 1523.81 1360.12 1532.22 1351.98 C 1551.75 1333 1571.46 1314.2 1591.33 1295.58 C 1641.32 1248.32 1693.04 1202.92 1746.37 1159.46 C 1768.19 1141.74 1790.08 1123.74 1813.04 1107.51 C 1825.49 1098.72 1838.02 1090.05 1850.62 1081.47 C 1862.2 1073.7 1876.02 1066.69 1885.54 1056.45 C 1890.91 1050.67 1894.46 1044.58 1896.69 1037.02 C 1904.66 1010.02 1886.8 967.711 1874.11 944.234 C 1847.57 895.122 1795.4 847.006 1741.34 831.023 C 1730.48 838.565 1720.62 848.817 1710.48 857.375 C 1675.58 887.362 1641.02 917.751 1606.82 948.536 L 1441.63 1096.72 C 1417.57 1118.56 1392.26 1139.41 1369.13 1162.19 z"/>
<path transform="translate(0,0)" fill="rgb(255,140,33)" d="M 303.371 606.85 C 286.205 600.166 269.955 591.649 253.171 584.117 L 129.499 528.467 L 672.975 289.687 L 848.768 211.997 C 869.182 203.056 894.389 188.121 915.574 183.555 C 934.296 190.213 952.5 199.537 970.693 207.567 L 1087.74 259.233 L 1526.96 450.42 C 1568.47 468.95 1610.18 487.025 1652.09 504.64 C 1669.31 512.072 1686.54 521.792 1704.39 527.516 C 1647.48 550.951 1591.43 577.2 1535.3 602.5 C 1504.82 616.236 1473.18 628.461 1443.3 643.364 C 1416.95 653.365 1391.64 666.238 1365.9 677.712 L 1202.27 751.372 L 1006.64 838.646 C 975.389 852.624 943.872 866.221 913.004 881.026 C 890.286 868.668 865.836 858.654 842.228 848.067 L 726.989 796.135 C 680.901 775.067 634.316 755.159 588.29 733.975 C 524.682 704.698 461.553 674.24 397.148 646.697 C 394.509 645.568 391.818 644.389 388.928 645.098 C 368.023 633.735 344.644 624.789 322.522 616.048 C 422.814 511.032 588.249 464.211 729.798 461.014 C 749.005 460.58 768.919 459.972 788.08 461.616 C 796.871 462.37 812.804 466.174 820.759 463.083 C 823.582 460.504 826.12 457.823 826.538 453.837 C 826.791 451.428 825.513 449.492 823.839 447.88 C 811.528 436.025 715.797 440.986 695.597 442.493 C 660.301 445.128 624.619 449.031 589.954 456.366 C 490.602 477.386 370.843 528.56 303.371 606.85 z"/>
<path transform="translate(0,0)" fill="rgb(43,35,32)" d="M 303.371 606.85 C 370.843 528.56 490.602 477.386 589.954 456.366 C 624.619 449.031 660.301 445.128 695.597 442.493 C 715.797 440.986 811.528 436.025 823.839 447.88 C 825.513 449.492 826.791 451.428 826.538 453.837 C 826.12 457.823 823.582 460.504 820.759 463.083 C 812.804 466.174 796.871 462.37 788.08 461.616 C 768.919 459.972 749.005 460.58 729.798 461.014 C 588.249 464.211 422.814 511.032 322.522 616.048 C 314.706 624.317 307.463 634.17 301.006 643.499 C 237.081 735.866 239.932 838.327 259.243 943.863 C 267.396 945.737 275.122 948.574 282.061 953.305 C 328.707 985.104 359.322 1123.89 369.312 1179.13 C 372.746 1198.11 377.128 1216.02 364.833 1233.01 C 358.004 1242.56 347.626 1248.98 336.026 1250.82 C 325.017 1252.5 312.382 1249.77 303.534 1242.88 C 281.776 1225.94 282.204 1184.85 278.853 1159.5 C 274.925 1193.96 276.713 1229.15 272.485 1263.55 C 270.828 1277.03 264.559 1291.12 253.523 1299.42 C 244.326 1306.33 232.043 1308.48 220.813 1306.56 C 208.997 1304.54 197.794 1296.79 191.243 1286.83 C 187.983 1281.88 185.884 1276.52 185.243 1270.61 C 183.52 1254.73 185.949 1236.91 187.36 1221.03 C 190.799 1182.29 194.919 1142.66 202.835 1104.56 C 192.607 1120.1 181.162 1138.59 161.568 1142.84 C 150.318 1145.28 138.768 1143.31 129.202 1136.91 C 119.353 1130.32 112.215 1120.37 109.934 1108.65 C 105.797 1087.39 130.338 1051.74 142.147 1033.96 C 159.58 1007.71 191.565 966.549 218.471 950.875 C 225.253 946.924 231.699 945.146 239.307 943.612 C 235.208 925.697 232.52 906.659 230.115 888.422 C 220.1 812.482 228.583 732.054 265.092 663.837 C 276.004 643.448 289.337 625.17 303.371 606.85 z M 235.144 965.809 C 199.667 983.003 167.949 1030.03 147.496 1063.5 C 141.641 1073.08 134.77 1083.17 131.17 1093.84 C 129.278 1099.44 128.85 1104.49 131.542 1109.91 C 133.138 1113.13 135.242 1115.71 137.669 1118.32 C 143.379 1122.1 148.46 1124.22 155.398 1122.76 C 174.905 1118.65 194.77 1082.8 204.816 1066.26 C 222.646 1036.92 235.943 1002.18 236.858 967.473 C 235.442 965.889 236.134 966.283 235.144 965.809 z M 265.98 967.622 C 276.489 1003.03 280.085 1040.78 285.481 1077.27 C 289.329 1103.29 294.477 1129.11 298.262 1155.14 C 301.052 1174.33 301.189 1198.41 307.443 1216.5 C 309.356 1222.04 313.284 1226.65 318.444 1229.41 C 324.137 1232.43 331.292 1232.8 337.323 1230.57 C 340.862 1229.26 343.612 1226.99 346.425 1224.54 C 352.587 1217.12 352.782 1209.73 351.969 1200.41 C 347.464 1148.82 310.924 1004.92 272.823 972.211 C 270.772 970.451 268.503 968.642 265.98 967.622 z M 252.378 1007.65 C 243.987 1032.33 234.802 1056.7 228.544 1082.04 C 224.466 1098.5 221.129 1115.13 218.543 1131.88 C 215.052 1153.22 199.779 1259.43 206.513 1273.57 C 208.482 1277.71 212.128 1280.59 215.858 1283.04 C 223.769 1285.78 231.338 1287.8 239.461 1284.18 C 244.865 1281.77 249.412 1276.93 251.288 1271.3 C 256.073 1256.94 255.154 1237.21 256.043 1222.02 C 259.653 1160.33 263.224 1097.65 256.603 1036.05 C 255.624 1026.94 255.151 1016.31 252.378 1007.65 z"/>
<path transform="translate(0,0)" fill="rgb(43,35,32)" d="M 913.004 881.026 C 943.872 866.221 975.389 852.624 1006.64 838.646 L 1202.27 751.372 L 1365.9 677.712 C 1391.64 666.238 1416.95 653.365 1443.3 643.364 C 1446.41 645.984 1449.08 647.746 1449.36 652.126 C 1449.44 653.253 1449.43 654.374 1449.42 655.502 C 1449.22 659.025 1449.72 661.193 1446.9 663.716 C 1442.22 667.895 1381.05 694.128 1370.83 698.582 C 1318.32 721.859 1265.96 745.465 1213.74 769.4 L 1041.1 846.377 L 965.639 880.373 C 948.449 888.235 930.115 898.462 911.758 903.096 C 903.728 900 896.201 895.686 888.441 891.977 C 877.622 886.805 866.616 881.982 855.692 877.036 C 808.631 855.351 761.42 833.994 714.062 812.965 C 640.628 780.176 567.454 746.807 494.547 712.86 C 457.029 695.616 418.741 679.541 381.923 660.856 C 381.392 659.399 381.1 658.205 381.193 656.615 C 381.489 651.557 385.56 648.385 388.928 645.098 C 391.818 644.389 394.509 645.568 397.148 646.697 C 461.553 674.24 524.682 704.698 588.29 733.975 C 634.316 755.159 680.901 775.067 726.989 796.135 L 842.228 848.067 C 865.836 858.654 890.286 868.668 913.004 881.026 z"/>
<path transform="translate(0,0)" fill="rgb(255,140,33)" d="M 1449.42 655.502 C 1451.13 687.644 1450.11 720.165 1450.71 752.381 C 1452.18 824.141 1453.15 895.909 1453.63 967.682 C 1409.1 996.697 1363.63 1024.2 1318.9 1052.9 C 1165.58 1151.26 1013.23 1241.44 824.278 1201.77 C 696.896 1175.03 599.595 1104.78 491.374 1037.17 C 464.753 1020.73 438.326 1003.98 412.098 986.924 C 401.966 980.434 390.507 974.731 381.113 967.336 C 380.864 865.175 381.133 763.014 381.923 660.856 C 418.741 679.541 457.029 695.616 494.547 712.86 C 567.454 746.807 640.628 780.176 714.062 812.965 C 761.42 833.994 808.631 855.351 855.692 877.036 C 866.616 881.982 877.622 886.805 888.441 891.977 C 896.201 895.686 903.728 900 911.758 903.096 C 930.115 898.462 948.449 888.235 965.639 880.373 L 1041.1 846.377 L 1213.74 769.4 C 1265.96 745.465 1318.32 721.859 1370.83 698.582 C 1381.05 694.128 1442.22 667.895 1446.9 663.716 C 1449.72 661.193 1449.22 659.025 1449.42 655.502 z"/>
<path transform="translate(0,0)" fill="rgb(43,35,32)" d="M 1316 1156.26 C 1334.85 1155.46 1350.96 1157.07 1369.13 1162.19 C 1380.22 1165.12 1391.14 1171.08 1401.08 1176.7 C 1438.13 1197.66 1468.36 1225.4 1489.93 1262.28 C 1507.57 1292.42 1517.8 1330.51 1508.41 1365.01 C 1507.11 1369.79 1505.21 1374.43 1503.37 1379.03 C 1500.42 1383.63 1496.78 1386.86 1492.13 1389.69 C 1487.38 1388.73 1484.42 1387.55 1481.29 1383.76 C 1478.74 1376.26 1486.36 1366.76 1488.86 1359.6 C 1497.5 1334.87 1488.22 1304.09 1477.43 1281.49 C 1453.74 1231.85 1404.74 1195.75 1353.74 1177.75 C 1330.23 1174.43 1297.28 1174.53 1277.31 1189.19 C 1264.42 1198.66 1252.41 1209.95 1240 1220.09 L 1176.84 1270.67 L 976.034 1430.88 C 937.674 1461.21 899.069 1491.24 860.222 1520.95 C 841.393 1535.3 812.836 1554.51 796.889 1570.05 C 788.214 1578.51 783.887 1588.51 782.364 1600.39 C 778.652 1629.34 790.247 1663.05 806.801 1686.53 C 835.423 1731.07 888.803 1769.7 938.404 1787.26 C 967.009 1797.39 1001.25 1801.81 1029.54 1788.16 C 1044.94 1780.73 1055.69 1767.41 1061.12 1751.37 C 1071.07 1721.96 1062.75 1689.35 1049.19 1662.56 C 1022.88 1610.52 986.663 1581.68 932.075 1563.63 C 911.197 1559.62 887.559 1557.62 869.069 1570.43 C 859.886 1576.8 853.704 1586.17 851.741 1597.19 C 849.261 1611.1 853.349 1623.8 859.21 1636.18 C 874.479 1671.05 907.138 1706.61 942.954 1720.84 C 954.759 1725.53 969.12 1728.32 981.158 1722.99 C 988.685 1719.66 995.541 1712.58 998.377 1704.81 C 1002.5 1693.52 998.347 1679.64 993.184 1669.27 C 985.051 1652.93 969.38 1634.67 951.518 1628.89 C 947.442 1627.58 941.043 1625.82 937.008 1628.14 C 927.188 1633.79 920.551 1650.96 907.433 1648.88 C 904.965 1648.49 902.575 1647.24 901.356 1644.97 C 899.934 1642.32 900.402 1639.09 901.507 1636.43 C 905.49 1626.82 922.377 1611.61 932.045 1608 C 942.981 1603.91 954.299 1606.36 964.519 1611.24 C 987.596 1622.26 1007.67 1645.37 1015.97 1669.49 C 1021.45 1685.43 1021.72 1703.09 1014.19 1718.47 C 1008.37 1730.38 998.661 1738.39 986.173 1742.58 C 966.827 1749.08 945.038 1745.79 927.225 1736.55 C 890.063 1717.26 864.177 1685.64 842.598 1650.75 C 833.464 1630.05 827.066 1608.52 833.644 1586.03 C 838.205 1570.17 849.054 1556.86 863.673 1549.19 C 890.702 1534.83 923.212 1539.49 951.207 1548 C 1003.44 1566.68 1046.79 1608.85 1070.44 1658.67 C 1085.02 1689.36 1092.62 1726.76 1080.57 1759.63 C 1072.71 1781.17 1056.42 1798.57 1035.45 1807.85 C 999.911 1823.99 959.516 1818.14 924.203 1804.47 C 877.579 1786.43 837.988 1755.67 805.501 1718.04 C 800.952 1710.6 795.232 1703.87 790.213 1696.74 C 778.189 1679.62 769.545 1660.37 764.744 1640.01 C 759.461 1617.34 758.767 1588.18 772.072 1567.83 C 775.762 1562.19 780.625 1556.77 785.634 1552.26 C 798.789 1540.42 814.575 1530.61 828.608 1519.73 L 939.76 1433.31 C 1047.36 1348.55 1154.34 1262.99 1260.68 1176.66 C 1280.21 1160.58 1299.14 1143.79 1318.45 1127.46 C 1402.85 1056.27 1486.36 984.048 1568.98 910.806 C 1600.62 883.212 1631.66 854.88 1662.96 826.9 C 1677.18 814.197 1691.11 799.594 1706.43 788.318 C 1711.99 784.232 1718.58 780.323 1725.43 779.149 C 1757.55 773.649 1791.29 790.712 1816.9 808.217 C 1867.94 843.814 1907.21 893.816 1929.69 951.836 C 1933.83 962.369 1938.99 973.922 1940.55 985.164 C 1940.91 987.754 1940.23 989.545 1938.56 991.56 C 1936.55 993.989 1931.55 995.324 1928.52 994.91 C 1921.32 993.925 1919.34 982.032 1917.47 976.168 C 1905.12 937.466 1886.1 902.926 1859.13 872.366 C 1831.73 841.311 1784.28 800.049 1740.94 797.9 C 1731.77 797.446 1725.02 798.816 1717.5 804.326 C 1696.96 819.372 1678.28 839.206 1659.35 856.332 L 1554.1 950.288 C 1509.71 989.935 1464.86 1029.06 1419.56 1067.66 C 1385.01 1097.09 1349.66 1125.83 1316 1156.26 z"/>
<path transform="translate(0,0)" fill="rgb(255,140,33)" d="M 1369.13 1162.19 C 1392.26 1139.41 1417.57 1118.56 1441.63 1096.72 L 1606.82 948.536 C 1641.02 917.751 1675.58 887.362 1710.48 857.375 C 1720.62 848.817 1730.48 838.565 1741.34 831.023 C 1795.4 847.006 1847.57 895.122 1874.11 944.234 C 1886.8 967.711 1904.66 1010.02 1896.69 1037.02 C 1894.46 1044.58 1890.91 1050.67 1885.54 1056.45 C 1876.02 1066.69 1862.2 1073.7 1850.62 1081.47 C 1838.02 1090.05 1825.49 1098.72 1813.04 1107.51 C 1790.08 1123.74 1768.19 1141.74 1746.37 1159.46 C 1693.04 1202.92 1641.32 1248.32 1591.33 1295.58 C 1571.46 1314.2 1551.75 1333 1532.22 1351.98 C 1523.81 1360.12 1513.04 1373.05 1503.37 1379.03 C 1505.21 1374.43 1507.11 1369.79 1508.41 1365.01 C 1517.8 1330.51 1507.57 1292.42 1489.93 1262.28 C 1468.36 1225.4 1438.13 1197.66 1401.08 1176.7 C 1391.14 1171.08 1380.22 1165.12 1369.13 1162.19 z"/>
<path transform="translate(0,0)" fill="rgb(255,140,33)" d="M 137.669 1118.32 C 135.242 1115.71 133.138 1113.13 131.542 1109.91 C 128.85 1104.49 129.278 1099.44 131.17 1093.84 C 134.77 1083.17 141.641 1073.08 147.496 1063.5 C 167.949 1030.03 199.667 983.003 235.144 965.809 C 236.134 966.283 235.442 965.889 236.858 967.473 C 235.943 1002.18 222.646 1036.92 204.816 1066.26 C 194.77 1082.8 174.905 1118.65 155.398 1122.76 C 148.46 1124.22 143.379 1122.1 137.669 1118.32 z"/>
<path transform="translate(0,0)" fill="rgb(255,140,33)" d="M 346.425 1224.54 C 343.612 1226.99 340.862 1229.26 337.323 1230.57 C 331.292 1232.8 324.137 1232.43 318.444 1229.41 C 313.284 1226.65 309.356 1222.04 307.443 1216.5 C 301.189 1198.41 301.052 1174.33 298.262 1155.14 C 294.477 1129.11 289.329 1103.29 285.481 1077.27 C 280.085 1040.78 276.489 1003.03 265.98 967.622 C 268.503 968.642 270.772 970.451 272.823 972.211 C 310.924 1004.92 347.464 1148.82 351.969 1200.41 C 352.782 1209.73 352.587 1217.12 346.425 1224.54 z"/>
<path transform="translate(0,0)" fill="rgb(255,140,33)" d="M 215.858 1283.04 C 212.128 1280.59 208.482 1277.71 206.513 1273.57 C 199.779 1259.43 215.052 1153.22 218.543 1131.88 C 221.129 1115.13 224.466 1098.5 228.544 1082.04 C 234.802 1056.7 243.987 1032.33 252.378 1007.65 C 255.151 1016.31 255.624 1026.94 256.603 1036.05 C 263.224 1097.65 259.653 1160.33 256.043 1222.02 C 255.154 1237.21 256.073 1256.94 251.288 1271.3 C 249.412 1276.93 244.865 1281.77 239.461 1284.18 C 231.338 1287.8 223.769 1285.78 215.858 1283.04 z"/>
<path transform="translate(0,0)" fill="rgb(255,255,255)" d="M 806.801 1686.53 C 790.247 1663.05 778.652 1629.34 782.364 1600.39 C 783.887 1588.51 788.214 1578.51 796.889 1570.05 C 812.836 1554.51 841.393 1535.3 860.222 1520.95 C 899.069 1491.24 937.674 1461.21 976.034 1430.88 L 1176.84 1270.67 L 1240 1220.09 C 1252.41 1209.95 1264.42 1198.66 1277.31 1189.19 C 1297.28 1174.53 1330.23 1174.43 1353.74 1177.75 C 1338.5 1196.78 1317.64 1212.9 1299.63 1229.34 L 1206.16 1314.94 L 1015.34 1489.09 C 993.832 1508.54 973.258 1529.19 951.207 1548 C 923.212 1539.49 890.702 1534.83 863.673 1549.19 C 849.054 1556.86 838.205 1570.17 833.644 1586.03 C 827.066 1608.52 833.464 1630.05 842.598 1650.75 C 832.78 1664.06 819.88 1676.39 806.801 1686.53 z"/>
<path transform="translate(0,0)" fill="rgb(255,140,33)" d="M 1353.74 1177.75 C 1404.74 1195.75 1453.74 1231.85 1477.43 1281.49 C 1488.22 1304.09 1497.5 1334.87 1488.86 1359.6 C 1486.36 1366.76 1478.74 1376.26 1481.29 1383.76 C 1484.42 1387.55 1487.38 1388.73 1492.13 1389.69 C 1474.68 1408.96 1454.96 1426.54 1436.23 1444.58 C 1414.23 1465.78 1392.7 1487.59 1370.85 1508.97 C 1358.12 1521.44 1346.1 1534.66 1333.58 1547.34 L 1222.89 1661 C 1180.82 1704.61 1139.39 1748.83 1098.61 1793.63 C 1089.45 1803.52 1080.45 1813.54 1071.6 1823.7 C 1063.11 1833.56 1055.04 1844.04 1045.24 1852.64 C 1033.58 1862.87 1019.5 1867.2 1004.12 1867.9 C 955.134 1870.15 894.729 1837.12 859.602 1804.67 C 835.236 1782.16 811.727 1751.43 805.501 1718.04 C 837.988 1755.67 877.579 1786.43 924.203 1804.47 C 959.516 1818.14 999.911 1823.99 1035.45 1807.85 C 1056.42 1798.57 1072.71 1781.17 1080.57 1759.63 C 1092.62 1726.76 1085.02 1689.36 1070.44 1658.67 C 1046.79 1608.85 1003.44 1566.68 951.207 1548 C 973.258 1529.19 993.832 1508.54 1015.34 1489.09 L 1206.16 1314.94 L 1299.63 1229.34 C 1317.64 1212.9 1338.5 1196.78 1353.74 1177.75 z"/>
<path transform="translate(0,0)" fill="rgb(255,255,255)" d="M 859.21 1636.18 C 853.349 1623.8 849.261 1611.1 851.741 1597.19 C 853.704 1586.17 859.886 1576.8 869.069 1570.43 C 887.559 1557.62 911.197 1559.62 932.075 1563.63 C 919.31 1578.03 904.998 1591.01 891.16 1604.37 C 880.343 1614.8 869.915 1625.63 859.21 1636.18 z"/>
<path transform="translate(0,0)" fill="rgb(255,140,33)" d="M 932.075 1563.63 C 986.663 1581.68 1022.88 1610.52 1049.19 1662.56 C 1062.75 1689.35 1071.07 1721.96 1061.12 1751.37 C 1055.69 1767.41 1044.94 1780.73 1029.54 1788.16 C 1001.25 1801.81 967.009 1797.39 938.404 1787.26 C 888.803 1769.7 835.423 1731.07 806.801 1686.53 C 819.88 1676.39 832.78 1664.06 842.598 1650.75 C 864.177 1685.64 890.063 1717.26 927.225 1736.55 C 945.038 1745.79 966.827 1749.08 986.173 1742.58 C 998.661 1738.39 1008.37 1730.38 1014.19 1718.47 C 1021.72 1703.09 1021.45 1685.43 1015.97 1669.49 C 1007.67 1645.37 987.596 1622.26 964.519 1611.24 C 954.299 1606.36 942.981 1603.91 932.045 1608 C 922.377 1611.61 905.49 1626.82 901.507 1636.43 C 900.402 1639.09 899.934 1642.32 901.356 1644.97 C 902.575 1647.24 904.965 1648.49 907.433 1648.88 C 920.551 1650.96 927.188 1633.79 937.008 1628.14 C 941.043 1625.82 947.442 1627.58 951.518 1628.89 C 969.38 1634.67 985.051 1652.93 993.184 1669.27 C 998.347 1679.64 1002.5 1693.52 998.377 1704.81 C 995.541 1712.58 988.685 1719.66 981.158 1722.99 C 969.12 1728.32 954.759 1725.53 942.954 1720.84 C 907.138 1706.61 874.479 1671.05 859.21 1636.18 C 869.915 1625.63 880.343 1614.8 891.16 1604.37 C 904.998 1591.01 919.31 1578.03 932.075 1563.63 z"/>
</svg>